<svg width="369" height="412" viewBox="0 0 369 412" fill="none" xmlns="http://www.w3.org/2000/svg">
<path fill-rule="evenodd" clip-rule="evenodd" d="M192.18 0.723619C162.481 -2.48038 134.509 4.93562 107.005 23.3676C79.4292 41.9076 46.2732 82.1556 28.3452 110.668C10.4532 139.108 2.67716 166.468 0.301162 192.604C-2.00284 218.596 9.51716 239.512 14.3052 265.9C18.9132 292.396 15.1692 328.793 28.3452 349.961C41.5572 370.768 61.5372 380.813 93.0012 390.928C124.609 401.116 176.089 415.877 215.901 410.332C255.61 404.393 292.546 386.752 329.051 356.439C347.338 341.248 358.93 321.628 364.655 296.068C370.163 270.363 368.975 235.66 362.495 204.448C355.835 173.272 339.132 136.732 325.847 110.668C312.636 84.6396 306.12 67.5756 283.8 49.2156C261.23 30.6986 231.25 14.8586 192.19 0.710619L192.18 0.723619Z" fill="#ABD148"/>
<path fill-rule="evenodd" clip-rule="evenodd" d="M325.482 359.361C324.097 360.236 322.765 361.278 321.5 362.5C321.458 362.541 321.416 362.581 321.373 362.622C322.744 361.553 324.113 360.466 325.482 359.361ZM308.995 371.783C279.177 388.452 237.463 379.265 210.499 361C199.125 355.15 185.296 344.35 172.147 334.082C162.156 326.28 152.559 318.785 144.728 314C112 294 94.7431 260.5 83 212C73.8548 174.23 80.5445 109.757 88.2353 69.5C92.7242 46.0033 107.062 21.8025 143.128 5.57884C130.931 9.46113 118.924 15.38 107.005 23.3676C79.4292 41.9076 46.2732 82.1556 28.3452 110.668C10.4532 139.108 2.67716 166.468 0.301162 192.604C-1.19073 209.434 3.11358 224.136 7.6332 239.574C10.0934 247.977 12.6175 256.598 14.3052 265.9C15.8448 274.752 16.452 284.71 17.0695 294.836C18.3001 315.017 19.5715 335.865 28.3452 349.961C41.5572 370.768 61.5372 380.813 93.0012 390.928C124.609 401.116 176.089 415.877 215.901 410.332C248.359 405.477 278.964 392.804 308.995 371.783Z" fill="#A2C644"/>
<path fill-rule="evenodd" clip-rule="evenodd" d="M100.48 220.291C95.5482 197.07 93.9642 158.442 94.3602 132.738C94.7202 106.998 97.3482 84.7136 102.784 67.4336C108.184 50.1176 114.556 39.2816 126.616 29.7776C138.532 20.2376 158.764 12.4976 174.244 10.5896C189.724 8.64562 200.956 10.2296 218.777 18.2576C236.632 26.2136 261.976 39.0296 280.228 58.2176C298.265 77.4776 313.671 106.854 326.308 132.738C338.728 158.55 349.636 186.954 354.747 211.83C359.681 236.525 358.349 259.314 356.296 280.193C354.243 300.929 351.941 321.269 342.437 335.525C332.572 349.638 315.437 359.681 298.66 364.685C281.777 369.474 263.092 372.21 242.609 364.685C222.017 357.017 196.564 335.165 176.548 319.398C156.532 303.414 136.264 286.925 123.52 270.222C110.83 253.562 105.28 243.302 100.49 220.302L100.48 220.291Z" fill="#E7F2D6"/>
<path fill-rule="evenodd" clip-rule="evenodd" d="M210.32 174.211C182.96 153.043 162.08 136.159 146.564 122.731C131.12 109.303 122.948 104.695 118.16 94.3266C113.192 83.7426 111.14 70.8546 117.404 60.5226C123.74 50.0826 144.584 27.4386 155.78 32.8746C166.832 38.5986 175.508 72.9786 183.464 93.5346C191.312 113.911 197.575 133.819 202.652 154.231C205.212 160.891 207.762 167.551 210.322 174.211H210.32Z" fill="#ABD148"/>
<path fill-rule="evenodd" clip-rule="evenodd" d="M203.41 133.491C200.279 119.667 196.066 104.835 190.379 88.1666C184.511 71.4626 168.851 45.7586 169.643 34.3826C170.507 23.0426 187.356 19.7306 195.743 20.5586C204.132 21.3866 211.872 27.3986 219.54 39.0266C216.983 38.6306 216.983 38.6306 219.54 39.0266C222.06 39.3506 231.671 35.8586 234.911 41.3306C238.007 46.9106 240.311 50.6186 238.763 72.0386C237.144 93.5666 232.931 125.175 225.697 168.807C224.076 167.619 222.672 167.115 221.088 167.295C219.469 167.439 218.065 168.159 216.481 169.599C212.131 157.579 207.771 145.549 203.421 133.489L203.41 133.491Z" fill="#ABD148"/>
<path fill-rule="evenodd" clip-rule="evenodd" d="M235.7 166.501C235.628 154.909 244.124 119.521 247.975 101.989C251.719 84.3846 252.871 65.8446 257.948 62.0646C262.952 58.3566 270.764 71.6406 277.927 79.7046C285.021 87.7326 296.755 99.3966 300.212 109.693C303.525 119.917 306.368 130.105 297.907 140.401C289.159 150.589 259.208 165.853 248.731 170.353C238.251 174.683 235.801 177.883 235.691 166.503L235.7 166.501Z" fill="#ABD148"/>
<path fill-rule="evenodd" clip-rule="evenodd" d="M243.37 183.421C246.393 179.533 258.382 177.841 269.47 172.657C280.45 167.293 300.177 154.225 308.673 151.921C316.989 149.545 314.687 151.381 319.402 158.833C324.119 166.357 333.191 186.229 336.322 196.489C339.31 206.749 342.947 217.118 337.078 219.528C330.922 221.508 314.471 213.589 300.215 209.52C285.779 205.525 261.406 199.945 251.83 195.697C242.24 191.267 240.44 187.277 243.36 183.417L243.37 183.421Z" fill="#ABD148"/>
<path fill-rule="evenodd" clip-rule="evenodd" d="M241.82 197.251C247.508 196.999 272.384 211.362 287.144 216.439C301.869 221.371 320.265 222.091 329.408 227.203C338.408 232.424 338.732 239.408 340.928 247.183C342.946 254.816 342.873 265.076 341.686 272.527C340.317 279.8 339.489 291.175 333.225 290.961C326.817 290.6 313.534 279.729 304.065 270.981C294.489 262.161 284.84 247.616 276.381 238.725C267.777 229.832 259.172 224.864 253.34 217.989C247.58 210.949 236.1 197.559 241.82 197.269V197.251Z" fill="#ABD148"/>
<path fill-rule="evenodd" clip-rule="evenodd" d="M198.8 178.061C192.212 170.177 165.068 151.925 150.416 140.405C135.656 128.705 118.988 109.733 111.248 108.905C103.58 108.221 104.336 125.609 104.336 135.797C104.192 145.877 103.508 161.465 110.492 168.809C117.548 175.901 132.56 175.721 145.808 178.817C158.984 181.841 179.756 187.349 188.828 187.277C197.748 187.177 205.048 185.767 198.788 178.067L198.8 178.061Z" fill="#ABD148"/>
<path fill-rule="evenodd" clip-rule="evenodd" d="M211.87 202.611C198.55 199.911 184.222 198.147 168.094 197.247C151.93 196.347 128.53 188.211 115.858 197.247C103.186 206.283 114.454 222.376 117.406 233.354C120.358 244.334 124.102 250.526 133.534 262.551C143.002 274.574 163.846 299.522 173.458 304.778C182.998 309.854 184.942 303.807 190.378 293.258C195.778 282.602 202.077 257.078 205.714 241.815C209.351 226.552 211.334 213.725 211.874 202.595L211.87 202.611Z" fill="#ABD148"/>
<path fill-rule="evenodd" clip-rule="evenodd" d="M217.23 232.561C214.783 241.848 211.291 256.069 208.015 270.217C204.738 284.328 197.898 305.389 198.042 316.297C198.114 326.881 201.245 327.961 208.806 333.973C216.402 340.092 232.314 349.524 243.367 352.405C254.347 355.032 268.89 353.485 274.074 350.1C278.97 346.645 278.394 345.961 273.318 331.668C268.062 317.053 250.673 283.969 243.367 264.061C236.023 244.081 233.035 221.725 229.543 213.373C225.979 205.164 223.783 211.644 221.838 214.92C219.748 218.02 219.458 223.38 217.228 232.56L217.23 232.561Z" fill="#ABD148"/>
<path fill-rule="evenodd" clip-rule="evenodd" d="M240.31 221.841C242.794 231.058 245.531 244.306 251.83 261.009C257.951 277.677 269.039 307.413 277.174 320.913C285.203 334.341 292.188 341.974 300.215 340.893C308.135 339.489 322.031 320.877 324.803 313.245C327.467 305.612 323.723 305.001 316.342 295.569C308.783 285.956 287.723 265.401 280.235 256.401C272.819 247.364 277.319 248.481 271.776 241.821C265.944 234.944 252.262 222.452 246.43 216.44C240.598 210.465 238.223 205.568 237.215 206.469C236.295 207.299 237.695 212.699 240.325 221.849L240.31 221.841Z" fill="#ABD148"/>
<path fill-rule="evenodd" clip-rule="evenodd" d="M259.5 255.601C258.061 255.673 264 273.062 268.717 282.494C273.324 291.781 285.672 310.791 287.149 310.933C288.446 310.79 281.786 291.781 277.176 282.494C272.486 273.064 260.896 255.684 259.496 255.604L259.5 255.601Z" fill="#E7F2D6"/>
<path fill-rule="evenodd" clip-rule="evenodd" d="M284.08 274.071C285.701 273.712 304.672 298.551 307.121 304.022C309.316 309.46 301.756 311.151 297.904 306.327C294.024 301.297 282.464 274.437 284.084 274.077L284.08 274.071Z" fill="#E7F2D6"/>
<path fill-rule="evenodd" clip-rule="evenodd" d="M269.47 221.041C268.57 220.969 277.21 226.297 281.783 231.049C286.283 235.621 295.355 248.545 296.363 248.725C297.226 248.688 291.611 236.52 287.146 231.805C282.576 227.015 270.336 221.255 269.476 221.035L269.47 221.041Z" fill="#E7F2D6"/>
<path fill-rule="evenodd" clip-rule="evenodd" d="M291.75 224.901C294.09 225.26 320.191 236.672 323.25 238.725C326.166 240.489 314.611 238.797 309.426 236.42C304.096 234.08 289.406 224.5 291.746 224.9L291.75 224.901Z" fill="#E7F2D6"/>
<path fill-rule="evenodd" clip-rule="evenodd" d="M271.02 177.271C272.784 176.047 271.307 177.811 278.688 175.759C286.174 173.491 312.598 164.311 315.586 164.203C318.287 164.095 303.707 171.619 295.607 174.967C287.291 178.135 271.378 183.031 267.166 183.427C263.096 183.787 268.956 178.497 271.016 177.277L271.02 177.271Z" fill="#E7F2D6"/>
<path fill-rule="evenodd" clip-rule="evenodd" d="M293.3 195.701C294.812 196.493 303.056 197.897 309.427 198.797C315.765 199.661 332.323 202.001 330.919 201.101C329.192 200.093 306.548 194.333 300.212 193.397C293.882 192.417 291.752 194.757 293.302 195.697L293.3 195.701Z" fill="#E7F2D6"/>
<path fill-rule="evenodd" clip-rule="evenodd" d="M248.73 155.781C249.378 156.609 262.914 148.113 271.015 141.957C279.078 135.729 296.79 119.817 296.359 118.917C295.566 118.089 275.191 130.221 267.162 136.557C259.062 142.597 248.162 154.837 248.732 155.777L248.73 155.781Z" fill="#E7F2D6"/>
<path fill-rule="evenodd" clip-rule="evenodd" d="M269.47 118.121C271.775 116.861 281.71 106.025 281.783 105.053C281.494 104.045 270.838 109.733 268.715 112.001C266.625 114.201 267.205 119.201 269.475 118.121H269.47Z" fill="#E7F2D6"/>
<path fill-rule="evenodd" clip-rule="evenodd" d="M225.69 63.5796C226.266 64.3356 226.626 85.2516 226.481 95.0796C226.336 104.728 225.545 121.72 224.934 121.216C224.213 120.388 222.522 100.948 222.629 91.2276C222.709 81.4306 224.979 62.9986 225.699 63.5746L225.69 63.5796Z" fill="#E7F2D6"/>
<path fill-rule="evenodd" clip-rule="evenodd" d="M194.98 42.0876C196.419 45.5076 203.261 82.3356 203.404 86.6196C203.261 90.6516 196.42 74.0556 194.98 66.6756C193.54 59.0436 193.54 38.8116 194.98 42.0876V42.0876Z" fill="#E7F2D6"/>
<path fill-rule="evenodd" clip-rule="evenodd" d="M203.41 98.9316C203.051 99.1476 205.211 109.48 207.262 118.12C209.135 126.76 214.463 150.52 214.93 150.376C215.219 150.016 211.44 125.248 209.567 116.608C207.477 107.898 203.797 98.7126 203.407 98.9286L203.41 98.9316Z" fill="#E7F2D6"/>
<path fill-rule="evenodd" clip-rule="evenodd" d="M170.4 84.3156C172.488 87.9876 180.984 114.844 184.224 125.032C187.212 135.04 190.884 147.748 188.831 144.256C186.636 140.476 175.08 113.62 171.948 103.54C168.808 93.4326 168.338 80.7246 170.398 84.3246L170.4 84.3156Z" fill="#E7F2D6"/>
<path fill-rule="evenodd" clip-rule="evenodd" d="M134.29 88.1676C135.658 90.5796 150.778 107.536 152.722 108.904C154.414 109.948 148.114 98.5356 145.054 95.0796C141.884 91.5546 133.064 85.8666 134.294 88.1706L134.29 88.1676Z" fill="#E7F2D6"/>
<path fill-rule="evenodd" clip-rule="evenodd" d="M138.14 59.7636C137.924 60.4836 144.368 70.4556 145.808 72.0396C147.176 73.2636 147.752 70.3116 146.564 68.1876C145.114 65.9916 138.274 59.1516 138.134 59.7636H138.14Z" fill="#E7F2D6"/>
<path fill-rule="evenodd" clip-rule="evenodd" d="M145.05 55.9116C145.554 57.4596 156.39 72.7236 158.118 74.3436C159.702 75.7836 157.182 68.2236 155.022 65.1276C152.722 62.0316 144.582 54.3276 145.052 55.9116H145.05Z" fill="#E7F2D6"/>
<path fill-rule="evenodd" clip-rule="evenodd" d="M168.09 163.441C161.61 160.417 146.814 152.065 142.746 151.165C138.642 150.193 137.994 155.089 144.258 158.077C150.594 161.029 176.19 167.797 180.366 168.805C184.286 169.645 174.316 166.365 168.086 163.445L168.09 163.441Z" fill="#E7F2D6"/>
<path fill-rule="evenodd" clip-rule="evenodd" d="M119.71 164.201C123.418 165.569 152.506 171.977 155.026 171.905C157.186 171.617 139.474 164.777 133.534 163.445C127.554 162.155 116.134 162.725 119.704 164.205L119.71 164.201Z" fill="#E7F2D6"/>
<path fill-rule="evenodd" clip-rule="evenodd" d="M125.83 204.161C128.458 203.585 167.662 206.177 173.458 207.222C178.822 208.23 166.834 210.785 158.878 210.318C150.698 209.598 123.488 204.768 125.828 204.158L125.83 204.161Z" fill="#E7F2D6"/>
<path fill-rule="evenodd" clip-rule="evenodd" d="M179.61 214.131C179.466 213.051 166.578 218.99 158.874 221.834C150.99 224.678 133.602 229.971 133.53 231.051C133.602 231.987 150.99 230.762 158.874 227.955C166.584 225.005 179.474 215.215 179.614 214.135L179.61 214.131Z" fill="#E7F2D6"/>
<path fill-rule="evenodd" clip-rule="evenodd" d="M199.59 222.591C200.455 224.571 196.387 257.152 194.192 267.159C191.743 277.059 186.667 283.54 185.768 281.739C184.94 279.686 186.38 265.468 188.827 255.602C191.097 245.492 198.617 220.832 199.587 222.592L199.59 222.591Z" fill="#E7F2D6"/>
<path fill-rule="evenodd" clip-rule="evenodd" d="M219.54 268.671C218.819 269.823 213.815 304.923 213.419 310.935C212.987 316.767 216.155 311.044 217.235 304.023C218.235 296.823 220.105 267.593 219.535 268.673L219.54 268.671Z" fill="#E7F2D6"/>
<path fill-rule="evenodd" clip-rule="evenodd" d="M228 254.091C227.496 255.388 229.945 275.98 233.4 285.591C236.785 294.915 247.296 311.259 247.98 310.179C248.376 308.775 239.808 288.183 236.46 278.679C232.96 269.279 228.57 252.939 228 254.089V254.091Z" fill="#E7F2D6"/>
</svg>
