<svg width="369" height="412" viewBox="0 0 369 412" fill="none" xmlns="http://www.w3.org/2000/svg">
<path fill-rule="evenodd" clip-rule="evenodd" d="M175.978 0.723619C205.677 -2.48038 233.649 4.93562 261.153 23.3676C288.729 41.9076 321.885 82.1556 339.813 110.668C357.705 139.108 365.481 166.468 367.857 192.604C370.161 218.596 358.641 239.512 353.853 265.9C349.245 292.396 352.989 328.793 339.813 349.961C326.601 370.768 306.621 380.813 275.157 390.928C243.549 401.116 192.069 415.877 152.257 410.332C112.548 404.393 75.6117 386.752 39.1067 356.439C20.8197 341.248 9.22769 321.628 3.50269 296.068C-2.00531 270.363 -0.817322 235.66 5.66269 204.448C12.3227 173.272 29.0257 136.732 42.3107 110.668C55.5217 84.6396 62.0377 67.5756 84.3577 49.2156C106.928 30.6986 136.908 14.8586 175.968 0.710619L175.978 0.723619Z" fill="#ABD148"/>
<path fill-rule="evenodd" clip-rule="evenodd" d="M42.676 359.361C44.0607 360.236 45.3925 361.278 46.6578 362.5C46.7 362.541 46.7422 362.581 46.7844 362.622C45.4141 361.553 44.0447 360.466 42.676 359.361ZM59.1627 371.783C88.9808 388.452 130.695 379.265 157.659 361C169.033 355.15 182.862 344.35 196.011 334.082C206.002 326.28 215.599 318.785 223.43 314C256.158 294 273.415 260.5 285.158 212C294.303 174.23 287.613 109.757 279.923 69.5C275.434 46.0033 261.096 21.8025 225.029 5.57886C237.227 9.46115 249.234 15.38 261.153 23.3676C288.729 41.9076 321.885 82.1556 339.813 110.668C357.705 139.108 365.481 166.468 367.857 192.604C369.349 209.434 365.044 224.136 360.525 239.574C358.064 247.977 355.54 256.598 353.853 265.9C352.313 274.752 351.706 284.71 351.088 294.836C349.858 315.017 348.586 335.865 339.813 349.961C326.601 370.768 306.621 380.813 275.157 390.928C243.549 401.116 192.069 415.877 152.257 410.332C119.799 405.477 89.194 392.804 59.1627 371.783Z" fill="#A2C644"/>
<path fill-rule="evenodd" clip-rule="evenodd" d="M267.678 220.291C272.61 197.07 274.194 158.442 273.798 132.738C273.438 106.998 270.81 84.7136 265.374 67.4336C259.974 50.1176 253.602 39.2816 241.542 29.7776C229.626 20.2376 209.394 12.4976 193.914 10.5896C178.434 8.64562 167.202 10.2296 149.381 18.2576C131.526 26.2136 106.182 39.0296 87.9297 58.2176C69.8927 77.4776 54.4867 106.854 41.8497 132.738C29.4297 158.55 18.5217 186.954 13.4107 211.83C8.47668 236.525 9.80865 259.314 11.8617 280.193C13.9147 300.929 16.2167 321.269 25.7207 335.525C35.5857 349.638 52.7207 359.681 69.4977 364.685C86.3807 369.474 105.066 372.21 125.549 364.685C146.141 357.017 171.594 335.165 191.61 319.398C211.626 303.414 231.894 286.925 244.638 270.222C257.328 253.562 262.878 243.302 267.668 220.302L267.678 220.291Z" fill="#E7F2D6"/>
<path fill-rule="evenodd" clip-rule="evenodd" d="M157.838 174.211C185.198 153.043 206.078 136.159 221.594 122.731C237.038 109.303 245.21 104.695 249.998 94.3266C254.966 83.7426 257.018 70.8546 250.754 60.5226C244.418 50.0826 223.574 27.4386 212.378 32.8746C201.326 38.5986 192.65 72.9786 184.694 93.5346C176.846 113.911 170.583 133.819 165.506 154.231C162.946 160.891 160.396 167.551 157.836 174.211H157.838Z" fill="#ABD148"/>
<path fill-rule="evenodd" clip-rule="evenodd" d="M164.748 133.491C167.879 119.667 172.092 104.835 177.779 88.1666C183.647 71.4626 199.307 45.7586 198.515 34.3826C197.651 23.0426 180.802 19.7306 172.415 20.5586C164.026 21.3866 156.286 27.3986 148.618 39.0266C151.175 38.6306 151.175 38.6306 148.618 39.0266C146.098 39.3506 136.487 35.8586 133.247 41.3306C130.151 46.9106 127.847 50.6186 129.395 72.0386C131.014 93.5666 135.227 125.175 142.461 168.807C144.082 167.619 145.486 167.115 147.07 167.295C148.689 167.439 150.093 168.159 151.677 169.599C156.027 157.579 160.387 145.549 164.737 133.489L164.748 133.491Z" fill="#ABD148"/>
<path fill-rule="evenodd" clip-rule="evenodd" d="M132.458 166.501C132.53 154.909 124.034 119.521 120.183 101.989C116.439 84.3846 115.287 65.8446 110.21 62.0646C105.206 58.3566 97.3937 71.6406 90.2307 79.7046C83.1367 87.7326 71.4027 99.3966 67.9457 109.693C64.6327 119.917 61.7897 130.105 70.2507 140.401C78.9987 150.589 108.95 165.853 119.427 170.353C129.907 174.683 132.357 177.883 132.467 166.503L132.458 166.501Z" fill="#ABD148"/>
<path fill-rule="evenodd" clip-rule="evenodd" d="M124.788 183.421C121.765 179.533 109.776 177.841 98.6877 172.657C87.7077 167.293 67.9807 154.225 59.4847 151.921C51.1687 149.545 53.4707 151.381 48.7557 158.833C44.0387 166.357 34.9667 186.229 31.8357 196.489C28.8477 206.749 25.2107 217.118 31.0797 219.528C37.2357 221.508 53.6867 213.589 67.9427 209.52C82.3787 205.525 106.752 199.945 116.328 195.697C125.918 191.267 127.718 187.277 124.798 183.417L124.788 183.421Z" fill="#ABD148"/>
<path fill-rule="evenodd" clip-rule="evenodd" d="M126.338 197.251C120.65 196.999 95.7737 211.362 81.0137 216.439C66.2887 221.371 47.8926 222.091 38.7496 227.203C29.7496 232.424 29.4257 239.408 27.2297 247.183C25.2117 254.816 25.2847 265.076 26.4717 272.527C27.8407 279.8 28.6687 291.175 34.9327 290.961C41.3407 290.6 54.6237 279.729 64.0927 270.981C73.6687 262.161 83.3177 247.616 91.7767 238.725C100.381 229.832 108.986 224.864 114.818 217.989C120.578 210.949 132.058 197.559 126.338 197.269V197.251Z" fill="#ABD148"/>
<path fill-rule="evenodd" clip-rule="evenodd" d="M169.358 178.061C175.946 170.177 203.09 151.925 217.742 140.405C232.502 128.705 249.17 109.733 256.91 108.905C264.578 108.221 263.822 125.609 263.822 135.797C263.966 145.877 264.65 161.465 257.666 168.809C250.61 175.901 235.598 175.721 222.35 178.817C209.174 181.841 188.402 187.349 179.33 187.277C170.41 187.177 163.11 185.767 169.37 178.067L169.358 178.061Z" fill="#ABD148"/>
<path fill-rule="evenodd" clip-rule="evenodd" d="M156.288 202.611C169.608 199.911 183.936 198.147 200.064 197.247C216.228 196.347 239.628 188.211 252.3 197.247C264.972 206.283 253.704 222.376 250.752 233.354C247.8 244.334 244.056 250.526 234.624 262.551C225.156 274.574 204.312 299.522 194.7 304.778C185.16 309.854 183.216 303.807 177.78 293.258C172.38 282.602 166.081 257.078 162.444 241.815C158.807 226.552 156.824 213.725 156.284 202.595L156.288 202.611Z" fill="#ABD148"/>
<path fill-rule="evenodd" clip-rule="evenodd" d="M150.928 232.561C153.375 241.848 156.867 256.069 160.143 270.217C163.42 284.328 170.26 305.389 170.116 316.297C170.044 326.881 166.913 327.961 159.352 333.973C151.756 340.092 135.844 349.524 124.791 352.405C113.811 355.032 99.2676 353.485 94.0836 350.1C89.1876 346.645 89.7636 345.961 94.8396 331.668C100.096 317.053 117.485 283.969 124.791 264.061C132.135 244.081 135.123 221.725 138.615 213.373C142.179 205.164 144.375 211.644 146.32 214.92C148.41 218.02 148.7 223.38 150.93 232.56L150.928 232.561Z" fill="#ABD148"/>
<path fill-rule="evenodd" clip-rule="evenodd" d="M127.848 221.841C125.364 231.058 122.627 244.306 116.328 261.009C110.207 277.677 99.1187 307.413 90.9837 320.913C82.9547 334.341 75.9697 341.974 67.9427 340.893C60.0227 339.489 46.1267 320.877 43.3547 313.245C40.6907 305.612 44.4347 305.001 51.8157 295.569C59.3747 285.956 80.4347 265.401 87.9227 256.401C95.3387 247.364 90.8387 248.481 96.3817 241.821C102.214 234.944 115.896 222.452 121.728 216.44C127.56 210.465 129.935 205.568 130.943 206.469C131.863 207.299 130.463 212.699 127.833 221.849L127.848 221.841Z" fill="#ABD148"/>
<path fill-rule="evenodd" clip-rule="evenodd" d="M108.658 255.601C110.097 255.673 104.158 273.062 99.4407 282.494C94.8337 291.781 82.4857 310.791 81.0087 310.933C79.7117 310.79 86.3717 291.781 90.9817 282.494C95.6717 273.064 107.262 255.684 108.662 255.604L108.658 255.601Z" fill="#E7F2D6"/>
<path fill-rule="evenodd" clip-rule="evenodd" d="M84.0777 274.071C82.4567 273.712 63.4857 298.551 61.0367 304.022C58.8417 309.46 66.4017 311.151 70.2537 306.327C74.1337 301.297 85.6937 274.437 84.0737 274.077L84.0777 274.071Z" fill="#E7F2D6"/>
<path fill-rule="evenodd" clip-rule="evenodd" d="M98.6877 221.041C99.5877 220.969 90.9477 226.297 86.3747 231.049C81.8747 235.621 72.8027 248.545 71.7947 248.725C70.9317 248.688 76.5467 236.52 81.0117 231.805C85.5817 227.015 97.8217 221.255 98.6817 221.035L98.6877 221.041Z" fill="#E7F2D6"/>
<path fill-rule="evenodd" clip-rule="evenodd" d="M76.4076 224.901C74.0676 225.26 47.9666 236.672 44.9076 238.725C41.9916 240.489 53.5466 238.797 58.7316 236.42C64.0616 234.08 78.7516 224.5 76.4116 224.9L76.4076 224.901Z" fill="#E7F2D6"/>
<path fill-rule="evenodd" clip-rule="evenodd" d="M97.1377 177.271C95.3737 176.047 96.8507 177.811 89.4697 175.759C81.9837 173.491 55.5597 164.311 52.5717 164.203C49.8707 164.095 64.4507 171.619 72.5507 174.967C80.8667 178.135 96.7797 183.031 100.992 183.427C105.062 183.787 99.2017 178.497 97.1417 177.277L97.1377 177.271Z" fill="#E7F2D6"/>
<path fill-rule="evenodd" clip-rule="evenodd" d="M74.8577 195.701C73.3457 196.493 65.1017 197.897 58.7307 198.797C52.3927 199.661 35.8347 202.001 37.2387 201.101C38.9657 200.093 61.6097 194.333 67.9457 193.397C74.2757 192.417 76.4057 194.757 74.8557 195.697L74.8577 195.701Z" fill="#E7F2D6"/>
<path fill-rule="evenodd" clip-rule="evenodd" d="M119.428 155.781C118.78 156.609 105.244 148.113 97.1427 141.957C89.0797 135.729 71.3677 119.817 71.7987 118.917C72.5917 118.089 92.9667 130.221 100.996 136.557C109.096 142.597 119.996 154.837 119.426 155.777L119.428 155.781Z" fill="#E7F2D6"/>
<path fill-rule="evenodd" clip-rule="evenodd" d="M98.6877 118.121C96.3827 116.861 86.4476 106.025 86.3746 105.053C86.6636 104.045 97.3197 109.733 99.4427 112.001C101.533 114.201 100.953 119.201 98.6827 118.121H98.6877Z" fill="#E7F2D6"/>
<path fill-rule="evenodd" clip-rule="evenodd" d="M142.468 63.5796C141.892 64.3356 141.532 85.2516 141.677 95.0796C141.822 104.728 142.613 121.72 143.224 121.216C143.945 120.388 145.636 100.948 145.529 91.2276C145.449 81.4306 143.179 62.9986 142.459 63.5746L142.468 63.5796Z" fill="#E7F2D6"/>
<path fill-rule="evenodd" clip-rule="evenodd" d="M173.178 42.0876C171.739 45.5076 164.897 82.3356 164.754 86.6196C164.897 90.6516 171.738 74.0556 173.178 66.6756C174.618 59.0436 174.618 38.8116 173.178 42.0876Z" fill="#E7F2D6"/>
<path fill-rule="evenodd" clip-rule="evenodd" d="M164.748 98.9316C165.107 99.1476 162.947 109.48 160.896 118.12C159.023 126.76 153.695 150.52 153.228 150.376C152.939 150.016 156.718 125.248 158.591 116.608C160.681 107.898 164.361 98.7126 164.751 98.9286L164.748 98.9316Z" fill="#E7F2D6"/>
<path fill-rule="evenodd" clip-rule="evenodd" d="M197.758 84.3156C195.67 87.9876 187.174 114.844 183.934 125.032C180.946 135.04 177.274 147.748 179.327 144.256C181.522 140.476 193.078 113.62 196.21 103.54C199.35 93.4326 199.82 80.7246 197.76 84.3246L197.758 84.3156Z" fill="#E7F2D6"/>
<path fill-rule="evenodd" clip-rule="evenodd" d="M233.868 88.1676C232.5 90.5796 217.38 107.536 215.436 108.904C213.744 109.948 220.044 98.5356 223.104 95.0796C226.274 91.5546 235.094 85.8666 233.864 88.1706L233.868 88.1676Z" fill="#E7F2D6"/>
<path fill-rule="evenodd" clip-rule="evenodd" d="M230.018 59.7636C230.234 60.4836 223.79 70.4556 222.35 72.0396C220.982 73.2636 220.406 70.3116 221.594 68.1876C223.044 65.9916 229.884 59.1516 230.024 59.7636H230.018Z" fill="#E7F2D6"/>
<path fill-rule="evenodd" clip-rule="evenodd" d="M223.108 55.9116C222.604 57.4596 211.768 72.7236 210.04 74.3436C208.456 75.7836 210.976 68.2236 213.136 65.1276C215.436 62.0316 223.576 54.3276 223.106 55.9116H223.108Z" fill="#E7F2D6"/>
<path fill-rule="evenodd" clip-rule="evenodd" d="M200.068 163.441C206.548 160.417 221.344 152.065 225.412 151.165C229.516 150.193 230.164 155.089 223.9 158.077C217.564 161.029 191.968 167.797 187.792 168.805C183.872 169.645 193.842 166.365 200.072 163.445L200.068 163.441Z" fill="#E7F2D6"/>
<path fill-rule="evenodd" clip-rule="evenodd" d="M248.448 164.201C244.74 165.569 215.652 171.977 213.132 171.905C210.972 171.617 228.684 164.777 234.624 163.445C240.604 162.155 252.024 162.725 248.454 164.205L248.448 164.201Z" fill="#E7F2D6"/>
<path fill-rule="evenodd" clip-rule="evenodd" d="M242.328 204.161C239.7 203.585 200.496 206.177 194.7 207.222C189.336 208.23 201.324 210.785 209.28 210.318C217.46 209.598 244.67 204.768 242.33 204.158L242.328 204.161Z" fill="#E7F2D6"/>
<path fill-rule="evenodd" clip-rule="evenodd" d="M188.548 214.131C188.692 213.051 201.58 218.99 209.284 221.834C217.168 224.678 234.556 229.971 234.628 231.051C234.556 231.987 217.168 230.762 209.284 227.955C201.574 225.005 188.684 215.215 188.544 214.135L188.548 214.131Z" fill="#E7F2D6"/>
<path fill-rule="evenodd" clip-rule="evenodd" d="M168.568 222.591C167.703 224.571 171.771 257.152 173.966 267.159C176.415 277.059 181.491 283.54 182.39 281.739C183.218 279.686 181.778 265.468 179.331 255.602C177.061 245.492 169.541 220.832 168.571 222.592L168.568 222.591Z" fill="#E7F2D6"/>
<path fill-rule="evenodd" clip-rule="evenodd" d="M148.618 268.671C149.339 269.823 154.343 304.923 154.739 310.935C155.171 316.767 152.003 311.044 150.923 304.023C149.923 296.823 148.053 267.593 148.623 268.673L148.618 268.671Z" fill="#E7F2D6"/>
<path fill-rule="evenodd" clip-rule="evenodd" d="M140.158 254.091C140.662 255.388 138.213 275.98 134.758 285.591C131.373 294.915 120.862 311.259 120.178 310.179C119.782 308.775 128.35 288.183 131.698 278.679C135.198 269.279 139.588 252.939 140.158 254.089V254.091Z" fill="#E7F2D6"/>
</svg>
