<svg width="1453" height="482" viewBox="0 0 1453 482" fill="none" xmlns="http://www.w3.org/2000/svg">
<path d="M612.4 244.6C620.667 244.867 629.333 245.267 638.4 245.8C647.733 246.333 659.2 247 672.8 247.8C673.333 242.733 673.733 238.733 674 235.8C674.267 232.867 674.4 230.467 674.4 228.6C674.667 226.733 674.8 225 674.8 223.4C674.8 221.533 674.8 219.133 674.8 216.2C675.067 212.467 675.067 209.267 674.8 206.6C674.533 203.667 674.667 200.733 675.2 197.8H614C612.667 191.133 612.667 185.267 614 180.2C615.6 174.867 619.467 171.667 625.6 170.6C629.333 170.067 633.467 169.533 638 169C642.533 168.2 647.067 167.533 651.6 167C656.133 166.467 660.4 166.067 664.4 165.8C668.667 165.533 672.4 165.533 675.6 165.8C676.133 162.067 676.667 157.933 677.2 153.4C677.733 148.867 678.133 144.2 678.4 139.4C678.667 134.6 678.533 129.8 678 125C677.733 120.2 676.933 115.8 675.6 111.8C663.067 111.267 650.133 111.533 636.8 112.6C623.733 113.4 611.6 115.667 600.4 119.4C591.333 122.333 584 126.867 578.4 133C572.8 138.867 568.4 145.533 565.2 153C562.267 160.2 560.4 167.667 559.6 175.4C558.8 183.133 558.667 190.333 559.2 197C554.933 196.733 550.4 196.6 545.6 196.6C541.067 196.6 536 196.6 530.4 196.6L531.6 245.4C536.933 245.133 541.867 245 546.4 245C551.2 245 555.733 245 560 245C560 249 559.867 254.733 559.6 262.2C559.6 269.667 559.467 278.2 559.2 287.8C559.2 297.133 559.2 306.867 559.2 317C559.2 327.133 559.2 336.867 559.2 346.2C559.467 355.267 559.6 363.533 559.6 371C559.867 378.2 560.267 383.4 560.8 386.6C564.267 387.133 568 387.267 572 387C576.267 386.733 580.667 386.467 585.2 386.2C589.733 385.667 594.267 385.267 598.8 385C603.333 384.733 607.867 384.867 612.4 385.4V331.8V244.6ZM746.763 201C746.763 199.133 746.629 197.8 746.363 197C746.363 196.2 746.363 195.533 746.363 195C746.363 194.2 746.363 193.267 746.363 192.2C746.363 191.133 746.363 189.533 746.363 187.4C746.363 186.867 745.163 186.6 742.763 186.6C740.629 186.333 737.963 186.333 734.763 186.6C731.829 186.867 728.896 187.133 725.963 187.4C723.296 187.667 721.429 187.8 720.363 187.8C717.163 188.067 714.496 188.333 712.363 188.6C710.229 188.6 708.229 188.6 706.363 188.6C704.496 188.6 702.496 188.6 700.363 188.6C698.229 188.333 695.563 188.067 692.363 187.8C691.296 223 691.029 257 691.563 289.8C692.363 322.6 692.763 355.4 692.763 388.2C699.163 387.667 704.629 387.533 709.163 387.8C713.963 388.067 718.363 388.2 722.363 388.2C726.363 388.467 730.229 388.467 733.963 388.2C737.696 387.933 741.829 387.133 746.363 385.8V384.2C746.363 374.333 746.229 365.133 745.963 356.6C745.963 347.8 745.963 339.267 745.963 331C745.963 322.467 745.829 314.067 745.563 305.8C745.296 297.533 745.029 288.733 744.763 279.4C744.496 271.933 745.563 266.2 747.963 262.2C750.363 258.2 753.696 255.267 757.963 253.4C762.496 251.533 767.696 250.6 773.563 250.6C779.696 250.6 786.363 251 793.563 251.8C793.829 251.8 795.563 252.067 798.763 252.6C802.229 253.133 805.563 253.8 808.763 254.6C810.096 255.133 811.429 255.667 812.763 256.2C814.363 256.467 815.829 256.867 817.163 257.4L820.763 258.6C820.496 254.6 820.363 250.333 820.363 245.8C820.363 241.267 820.363 236.333 820.363 231C820.363 225.4 820.363 219.133 820.363 212.2C820.629 205.267 820.763 197.267 820.763 188.2C820.763 187.933 818.763 187.8 814.763 187.8C811.029 187.533 806.363 187.533 800.763 187.8C795.163 188.067 789.163 188.733 782.763 189.8C776.363 190.6 770.629 191.8 765.563 193.4C761.829 194.733 757.963 196.2 753.963 197.8C750.229 199.4 747.829 200.467 746.763 201ZM888.028 185.8C879.495 186.067 872.161 186.067 866.028 185.8C859.895 185.533 855.095 185.267 851.628 185C850.295 185 848.295 184.867 845.628 184.6C843.228 184.333 841.495 184.333 840.428 184.6V185C838.828 200.733 838.028 217 838.028 233.8C838.028 250.333 838.295 267.133 838.828 284.2C839.361 301.267 839.628 318.467 839.628 335.8C839.895 353.133 839.361 370.2 838.028 387C839.895 386.467 843.628 386.333 849.228 386.6C854.828 386.867 860.695 387 866.828 387C873.228 387.267 879.095 387.267 884.428 387C889.761 387 893.095 386.2 894.428 384.6C892.561 352.333 892.028 319.4 892.828 285.8C893.895 252.2 894.561 219.267 894.828 187V185.8H888.028ZM838.828 98.6C838.561 110.867 838.695 121.267 839.228 129.8C840.028 138.067 840.428 146.067 840.428 153.8C845.495 153.533 850.961 153.667 856.828 154.2C862.695 154.467 868.161 154.733 873.228 155C878.561 155 883.095 154.733 886.828 154.2C890.828 153.667 893.361 152.6 894.428 151C894.428 147 894.295 142.467 894.028 137.4C894.028 132.067 893.895 127 893.628 122.2C893.628 117.133 893.495 112.6 893.228 108.6C893.228 104.333 893.228 101.4 893.228 99.8L838.828 98.6ZM922.841 241.8C922.307 252.2 921.907 263.8 921.641 276.6C921.641 289.4 921.641 302.467 921.641 315.8C921.641 329.133 921.641 342.333 921.641 355.4C921.641 368.467 921.507 380.6 921.241 391.8C918.574 395.533 914.707 398.467 909.641 400.6C904.574 402.733 899.107 404.333 893.241 405.4C887.374 406.733 881.507 407.533 875.641 407.8C869.507 408.067 864.174 408.067 859.641 407.8C859.107 411.533 858.574 415.667 858.041 420.2C857.507 424.733 857.107 429.4 856.841 434.2C856.574 439 856.707 443.8 857.241 448.6C857.507 453.4 858.307 457.8 859.641 461.8C870.307 462.333 881.374 462.2 892.841 461.4C904.307 460.867 915.107 459.4 925.241 457C935.374 454.6 944.307 451 952.041 446.2C960.041 441.4 965.774 434.867 969.241 426.6C971.374 413.8 972.841 401.4 973.641 389.4C974.707 377.667 975.241 366.067 975.241 354.6C975.507 342.867 975.507 331.133 975.241 319.4C975.241 307.4 975.241 294.867 975.241 281.8C974.707 277 974.574 270.6 974.841 262.6C975.107 254.333 975.241 245.8 975.241 237C975.507 227.933 975.641 219 975.641 210.2C975.641 201.133 975.241 193.4 974.441 187C970.974 186.467 967.107 186.333 962.841 186.6C958.841 186.867 954.574 187.267 950.041 187.8C945.507 188.067 940.841 188.333 936.041 188.6C931.507 188.867 927.107 188.733 922.841 188.2V241.8ZM920.441 98.6C920.174 110.867 920.307 121.267 920.841 129.8C921.641 138.067 922.041 146.067 922.041 153.8C927.107 153.533 932.574 153.667 938.441 154.2C944.307 154.467 949.641 154.733 954.441 155C959.507 155 963.907 154.733 967.641 154.2C971.374 153.667 973.774 152.6 974.841 151C974.841 147 974.707 142.467 974.441 137.4C974.441 132.067 974.307 127 974.041 122.2C974.041 117.133 973.907 112.6 973.641 108.6C973.641 104.333 973.641 101.4 973.641 99.8L920.441 98.6ZM1056.48 208.6C1056.21 204.867 1056.08 201.533 1056.08 198.6C1056.35 195.667 1056.21 191.933 1055.68 187.4C1055.68 186.6 1054.61 186.2 1052.48 186.2C1050.35 185.933 1047.95 185.933 1045.28 186.2C1042.61 186.467 1039.95 186.867 1037.28 187.4C1034.61 187.667 1032.75 187.8 1031.68 187.8C1028.48 188.067 1025.81 188.333 1023.68 188.6C1021.55 188.6 1019.55 188.6 1017.68 188.6C1015.81 188.6 1013.81 188.6 1011.68 188.6C1009.55 188.333 1006.88 188.067 1003.68 187.8C1002.61 223 1002.35 257 1002.88 289.8C1003.68 322.6 1004.08 355.4 1004.08 388.2C1010.48 387.667 1015.81 387.533 1020.08 387.8C1024.35 388.067 1028.21 388.2 1031.68 388.2C1035.15 388.467 1038.48 388.467 1041.68 388.2C1045.15 387.933 1049.15 387.133 1053.68 385.8V384.2C1054.75 375.4 1055.28 366.6 1055.28 357.8C1055.28 349 1055.01 340.2 1054.48 331.4C1054.21 322.333 1053.95 313.4 1053.68 304.6C1053.41 295.533 1053.55 286.333 1054.08 277C1054.61 269.8 1056.48 264.467 1059.68 261C1062.88 257.267 1066.48 254.867 1070.48 253.8C1074.48 252.467 1078.48 252.2 1082.48 253C1086.75 253.533 1089.95 254.333 1092.08 255.4C1092.35 255.667 1092.61 255.8 1092.88 255.8C1093.15 255.8 1093.41 255.933 1093.68 256.2C1095.81 257.8 1097.41 260.067 1098.48 263C1099.81 265.933 1100.75 269.267 1101.28 273C1102.08 276.733 1102.61 280.6 1102.88 284.6C1103.15 288.333 1103.41 291.8 1103.68 295C1104.21 302.2 1104.48 309.933 1104.48 318.2C1104.75 326.467 1104.75 334.733 1104.48 343C1104.48 351.267 1104.48 359.267 1104.48 367C1104.48 374.733 1104.75 381.667 1105.28 387.8C1114.61 387.8 1122.88 387.8 1130.08 387.8C1137.55 388.067 1145.95 387.533 1155.28 386.2C1154.75 378.2 1154.48 369 1154.48 358.6C1154.75 347.933 1155.01 337 1155.28 325.8C1155.55 314.333 1155.81 302.867 1156.08 291.4C1156.35 279.667 1156.35 268.6 1156.08 258.2C1158.48 256.333 1161.01 255 1163.68 254.2C1166.61 253.133 1169.41 252.6 1172.08 252.6C1175.01 252.6 1177.68 252.867 1180.08 253.4C1182.48 253.933 1184.48 254.6 1186.08 255.4C1186.35 255.667 1186.61 255.8 1186.88 255.8C1187.15 255.8 1187.41 255.933 1187.68 256.2C1189.81 257.8 1191.41 260.067 1192.48 263C1193.81 265.933 1194.75 269.267 1195.28 273C1196.08 276.733 1196.61 280.6 1196.88 284.6C1197.15 288.333 1197.41 291.8 1197.68 295C1198.21 302.2 1198.48 309.933 1198.48 318.2C1198.75 326.467 1198.75 334.733 1198.48 343C1198.48 351.267 1198.48 359.267 1198.48 367C1198.48 374.733 1198.75 381.667 1199.28 387.8C1208.61 387.8 1216.88 387.8 1224.08 387.8C1231.55 388.067 1239.95 387.533 1249.28 386.2C1248.75 377.133 1248.61 366.6 1248.88 354.6C1249.15 342.6 1249.41 330.2 1249.68 317.4C1249.95 304.333 1250.08 291.533 1250.08 279C1250.35 266.2 1250.21 254.467 1249.68 243.8C1249.41 233.133 1248.48 224.067 1246.88 216.6C1245.55 208.867 1243.55 203.8 1240.88 201.4C1235.28 196.6 1229.01 193.267 1222.08 191.4C1215.15 189.533 1207.95 188.733 1200.48 189C1193.28 189.267 1186.21 190.6 1179.28 193C1172.35 195.4 1166.08 198.6 1160.48 202.6C1159.15 203.667 1157.55 204.733 1155.68 205.8C1153.81 206.6 1152.21 207.4 1150.88 208.2C1149.55 205 1148.21 202.733 1146.88 201.4C1141.28 196.6 1135.01 193.267 1128.08 191.4C1121.15 189.533 1113.95 188.733 1106.48 189C1099.28 189.267 1092.21 190.6 1085.28 193C1078.35 195.4 1072.08 198.6 1066.48 202.6C1065.15 203.667 1063.41 204.733 1061.28 205.8C1059.41 206.867 1057.81 207.8 1056.48 208.6ZM1438.32 187.8C1429.79 187.267 1422.19 186.867 1415.52 186.6C1409.12 186.333 1403.65 186.067 1399.12 185.8C1398.32 185.8 1396.85 185.8 1394.72 185.8C1392.59 185.8 1390.45 185.8 1388.32 185.8C1386.19 185.533 1384.19 185.533 1382.32 185.8C1380.72 185.8 1379.92 185.933 1379.92 186.2C1379.92 189.4 1379.52 192.6 1378.72 195.8C1378.19 198.733 1378.05 202.333 1378.32 206.6C1376.45 202.067 1374.19 198.6 1371.52 196.2C1368.85 193.533 1365.79 191.667 1362.32 190.6C1358.85 189.267 1354.99 188.6 1350.72 188.6C1346.72 188.333 1342.32 188.2 1337.52 188.2C1328.19 188.467 1319.39 191 1311.12 195.8C1302.85 200.333 1295.65 206.733 1289.52 215C1283.65 223 1278.99 232.6 1275.52 243.8C1272.05 255 1270.32 267.267 1270.32 280.6C1270.32 291.267 1271.39 302.867 1273.52 315.4C1275.92 327.933 1279.52 339.533 1284.32 350.2C1289.12 360.867 1295.12 369.8 1302.32 377C1309.79 384.2 1318.72 387.8 1329.12 387.8C1338.45 387.8 1347.92 385.533 1357.52 381C1367.39 376.467 1375.52 371 1381.92 364.6C1381.92 367.267 1381.65 369.533 1381.12 371.4C1380.59 373.267 1380.32 375.667 1380.32 378.6C1380.32 380.733 1380.59 382.6 1381.12 384.2C1381.92 385.8 1383.25 386.867 1385.12 387.4C1388.05 387.4 1390.85 387.267 1393.52 387C1396.45 386.467 1399.39 386.2 1402.32 386.2C1406.59 386.2 1410.85 386.467 1415.12 387C1419.65 387.267 1424.05 387.4 1428.32 387.4H1433.12C1436.32 386.867 1437.92 384.867 1437.92 381.4C1438.19 377.933 1438.32 374.467 1438.32 371C1440.19 342.467 1440.59 314.333 1439.52 286.6C1438.45 258.6 1438.32 230.2 1439.12 201.4V197.4C1439.12 195.8 1438.99 194.2 1438.72 192.6C1438.72 191 1438.59 189.4 1438.32 187.8ZM1321.92 267.4C1323.25 260.733 1326.99 254.867 1333.12 249.8C1339.52 244.467 1348.19 241.8 1359.12 241.8C1364.72 241.8 1368.85 242.2 1371.52 243C1374.45 243.8 1376.45 245.667 1377.52 248.6C1378.85 251.533 1379.52 255.8 1379.52 261.4C1379.79 266.733 1379.92 274.067 1379.92 283.4C1379.92 290.867 1379.79 297.667 1379.52 303.8C1379.52 309.667 1378.72 314.733 1377.12 319C1375.79 323 1373.39 326.2 1369.92 328.6C1366.72 330.733 1361.79 331.8 1355.12 331.8C1343.92 331.8 1335.12 327.667 1328.72 319.4C1322.59 310.867 1319.52 300.6 1319.52 288.6C1319.52 285.133 1319.65 281.667 1319.92 278.2C1320.19 274.467 1320.85 270.867 1321.92 267.4Z" fill="#F9B630"/>
<path d="M657.8 186.4C649.267 189.333 639.533 190.667 628.6 190.4C617.933 189.867 607.533 190.267 597.4 191.6C595.533 188.133 594.6 184.667 594.6 181.2C594.6 175.867 596.333 171.333 599.8 167.6C603.267 163.867 607.667 161.733 613 161.2C614.333 161.2 615.533 161.333 616.6 161.6C617.933 161.6 619.8 161.6 622.2 161.6C626.467 161.6 632.6 160.933 640.6 159.6C648.867 158.267 656.333 156.667 663 154.8C661.933 149.733 661.267 144.933 661 140.4C660.733 135.867 660.6 131.467 660.6 127.2C660.6 123.467 660.6 120.133 660.6 117.2C660.867 114.267 661 111.6 661 109.2C661 104.667 659.4 102.133 656.2 101.6C653 101.067 648.733 100.8 643.4 100.8C637 100.8 630.6 101.467 624.2 102.8C617.8 103.867 612.6 104.667 608.6 105.2L609 104.8C609 103.733 608.6 103.2 607.8 103.2C605.4 103.2 603.267 103.733 601.4 104.8C599.533 105.6 597.667 106.533 595.8 107.6C593.933 108.667 592.067 109.733 590.2 110.8C588.6 111.6 586.733 112 584.6 112C581.933 112 580.067 112.8 579 114.4C577.933 115.733 576.333 116.8 574.2 117.6C571.533 118.667 569 119.733 566.6 120.8C564.467 121.867 562.333 123.333 560.2 125.2C558.067 127.067 555.933 129.6 553.8 132.8C551.667 136 549.4 140.133 547 145.2C544.867 150 543.267 154.533 542.2 158.8C541.4 162.8 540.733 166.533 540.2 170C539.933 173.2 539.533 176.267 539 179.2C538.733 181.867 537.8 184.4 536.2 186.8C531.933 186.8 527.8 186.133 523.8 184.8C520.067 183.467 516.733 182.533 513.8 182C513.8 183.6 513.667 184.533 513.4 184.8C513.133 184.8 512.733 185.467 512.2 186.8C512.733 188.4 513.133 190.533 513.4 193.2C513.667 195.867 513.8 198.667 513.8 201.6V232.4C514.067 234.533 514.2 236.667 514.2 238.8C514.2 240.667 514.333 242.267 514.6 243.6C517.533 243.6 521.267 244 525.8 244.8C530.6 245.6 535.133 246.267 539.4 246.8C539.667 252.4 540.067 258.4 540.6 264.8C541.133 271.2 541.4 277.6 541.4 284C541.4 288.533 541 292.933 540.2 297.2C539.4 301.467 539 305.867 539 310.4C539 318.4 539.133 326 539.4 333.2C539.933 340.4 540.2 346.667 540.2 352C540.2 355.733 539.933 358.933 539.4 361.6C539.133 364.267 539 366.8 539 369.2C539 372.933 539.4 375.333 540.2 376.4C547.933 376.4 555.4 376.533 562.6 376.8C569.8 376.8 578.067 377.067 587.4 377.6C588.733 377.867 589.8 378 590.6 378C591.667 378.267 592.6 378.4 593.4 378.4C595.533 378.4 597 377.467 597.8 375.6C595.667 373.733 594.333 370.667 593.8 366.4C593.267 362.133 593 358 593 354C593 348.667 593.4 342.933 594.2 336.8C595 330.667 595.667 324.533 596.2 318.4C596.733 304 597.133 289.867 597.4 276C597.933 261.867 598.867 249.2 600.2 238C604.733 240.933 610.067 242.4 616.2 242.4C621.533 242.4 627.133 241.867 633 240.8C639.133 239.467 645 238.8 650.6 238.8H655C656.867 232.667 657.933 225.333 658.2 216.8C658.733 208.267 659.133 200.533 659.4 193.6C658.333 193.6 657.8 192.933 657.8 191.6C658.067 190 658.067 188.267 657.8 186.4ZM650.2 230C645.4 232.133 640.467 233.467 635.4 234C630.333 234.533 624.867 234.8 619 234.8C618.467 234.8 617.267 234.8 615.4 234.8C613.8 234.8 612.067 234.8 610.2 234.8C608.333 234.8 606.6 234.667 605 234.4C603.4 234.133 602.6 233.733 602.6 233.2V232.4C602.6 232.133 602.2 231.733 601.4 231.2C599.8 232 597.667 232.267 595 232C592.333 231.733 590.2 232.4 588.6 234V247.2C588.6 265.067 587.533 282.267 585.4 298.8C583.533 315.067 582.6 332 582.6 349.6C582.6 350.933 582.6 352.133 582.6 353.2C582.867 354.267 583 355.467 583 356.8C583 361.867 582.467 366.4 581.4 370.4C576.333 369.867 571.133 369.467 565.8 369.2C560.733 368.933 556.2 368.133 552.2 366.8C552.467 366 552.6 364.4 552.6 362C552.067 358.8 551.533 354 551 347.6C550.467 341.2 549.933 334.533 549.4 327.6C548.867 320.4 548.467 313.733 548.2 307.6C547.933 301.2 547.8 296.533 547.8 293.6C547.8 289.867 548.067 286.4 548.6 283.2C549.133 280 549.4 276.533 549.4 272.8C549.4 268 548.867 263.2 547.8 258.4C547 253.6 546.6 248.933 546.6 244.4C546.6 242 547 239.333 547.8 236.4C545.933 234.533 545 231.6 545 227.6C543.667 230.8 541 232.8 537 233.6C533.267 234.133 529.4 234.4 525.4 234.4H518.6C518.333 230.933 517.933 227.333 517.4 223.6C517.133 219.6 517 215.333 517 210.8C517 204.4 518.067 200.267 520.2 198.4C522.6 196.267 525.133 195.2 527.8 195.2C528.867 195.2 529.933 195.333 531 195.6C532.067 195.6 533.267 195.733 534.6 196C537 196 538.733 195.333 539.8 194C541.133 192.667 542.6 192 544.2 192L545.4 192.4L546.6 191.2C547.4 180.8 549.4 170.667 552.6 160.8C556.067 150.933 560.467 142.533 565.8 135.6C561.8 139.6 558.067 144.667 554.6 150.8C551.4 156.933 549.133 163.733 547.8 171.2V167.6C547.8 154.267 550.867 143.733 557 136C563.4 128.267 571.533 122.133 581.4 117.6C581.133 119.467 579.8 121.2 577.4 122.8C575 124.4 573.133 126.267 571.8 128.4C576.333 124.933 580.733 121.333 585 117.6C589.533 113.867 595.667 111.733 603.4 111.2C603.933 111.2 604.867 111.333 606.2 111.6C607.8 111.6 609.667 111.733 611.8 112C617.4 112 623.267 110.933 629.4 108.8C635.8 106.4 641.267 105.2 645.8 105.2C651.4 105.2 654.733 105.867 655.8 107.2C657.133 108.267 657.8 111.067 657.8 115.6C657.8 124.133 657.667 131.467 657.4 137.6C657.4 143.733 657.267 148.533 657 152C650.867 153.867 644.6 155.333 638.2 156.4C632.067 157.467 627 158 623 158C620.867 158 619.133 158 617.8 158C616.467 157.733 615.133 157.6 613.8 157.6C607.4 157.6 601.933 160.267 597.4 165.6C593.133 170.667 591 176.4 591 182.8C591 187.067 591.933 190.933 593.8 194.4L600.6 195.2C604.867 195.2 609 194.667 613 193.6C617.267 192.267 621.533 191.6 625.8 191.6C627.4 191.6 630.2 191.733 634.2 192C638.2 192.267 643.267 192.667 649.4 193.2C650.2 193.2 651.667 192.933 653.8 192.4C653.267 194.533 652.867 197.2 652.6 200.4C652.6 203.6 652.2 210.267 651.4 220.4L650.2 230ZM806.563 177.6C806.029 177.867 805.496 178 804.963 178C804.696 178 804.563 178.133 804.563 178.4C804.029 178.4 803.629 178.133 803.363 177.6C803.363 177.067 802.829 176.533 801.763 176C791.363 179.733 768.963 185.333 734.563 192.8C733.229 189.333 732.563 185.6 732.563 181.6C732.829 177.6 732.296 174.267 730.963 171.6L729.763 172.8C729.496 173.067 729.363 173.333 729.363 173.6C729.363 173.6 729.229 173.733 728.963 174H724.563C718.163 174 711.896 174.533 705.763 175.6C699.629 176.667 692.029 177.2 682.963 177.2C682.429 177.2 680.829 176.933 678.163 176.4C677.363 179.067 676.829 181.067 676.563 182.4C676.296 183.733 674.829 184.4 672.163 184.4C672.963 190.8 673.363 197.867 673.363 205.6C673.363 217.6 672.696 230.667 671.363 244.8C670.296 258.933 669.763 273.6 669.763 288.8C669.763 295.733 670.029 306 670.563 319.6C671.096 332.933 671.896 349.733 672.963 370V381.2C675.096 383.333 678.029 384.4 681.763 384.4C682.563 384.4 684.696 384.267 688.163 384C691.629 384 695.896 383.867 700.963 383.6C706.029 383.333 711.629 382.8 717.763 382C724.163 381.467 730.563 380.667 736.963 379.6C736.696 374.533 736.296 368.8 735.763 362.4C735.229 355.733 734.696 348.933 734.163 342C733.629 334.8 733.096 327.467 732.563 320C732.296 312.533 732.163 305.333 732.163 298.4C732.163 292.533 732.429 286.4 732.963 280C733.496 273.333 734.696 267.333 736.563 262C738.696 256.667 741.496 252.267 744.963 248.8C748.696 245.333 753.629 243.6 759.763 243.6C765.363 243.6 771.229 244.4 777.363 246C783.763 247.6 788.563 249.067 791.763 250.4C794.963 251.733 796.696 252.933 796.963 254C797.229 254.8 797.629 255.467 798.163 256L803.363 256.4C803.896 256.4 804.296 255.333 804.563 253.2C805.096 251.067 805.496 247.2 805.763 241.6C806.029 235.733 806.163 227.733 806.163 217.6C806.429 207.2 806.563 193.867 806.563 177.6ZM796.963 247.2C790.029 245.333 783.229 242.667 776.563 239.2C770.163 235.467 763.096 233.6 755.363 233.6C748.163 233.6 742.563 235.867 738.563 240.4C734.829 244.933 732.029 250.4 730.163 256.8C728.296 262.933 727.096 269.467 726.563 276.4C726.296 283.333 726.163 289.2 726.163 294C726.163 308.4 726.563 322.533 727.363 336.4C728.163 350 729.763 362.533 732.163 374C725.496 375.067 718.829 376.4 712.163 378C705.763 379.333 698.696 380 690.963 380C689.363 380 687.496 379.867 685.363 379.6C683.496 379.333 682.563 378.667 682.563 377.6V376.8C682.829 376.8 682.963 377.067 682.963 377.6C683.229 378.133 683.629 378.4 684.163 378.4L686.963 370.8L684.963 367.2V363.6C684.963 362.533 684.829 360.133 684.563 356.4C684.563 352.667 684.429 348.267 684.163 343.2C683.896 337.867 683.496 332.133 682.963 326C682.696 319.867 682.429 313.733 682.163 307.6C681.363 292.933 680.563 276.8 679.763 259.2C679.763 256.267 680.163 253.733 680.963 251.6V253.2L681.763 248C681.763 239.733 681.629 233.467 681.363 229.2C681.363 224.933 681.363 220.533 681.363 216C681.363 211.467 681.496 206.8 681.763 202C682.029 197.2 682.696 192.4 683.763 187.6C690.963 187.333 697.629 186.667 703.763 185.6C709.896 184.533 716.429 184 723.363 184C723.629 184.8 723.763 186 723.763 187.6C724.029 189.2 724.296 191.067 724.563 193.2C725.096 195.067 725.896 197.067 726.963 199.2C728.029 201.333 729.763 203.2 732.163 204.8C733.496 204.267 734.163 203.333 734.163 202C734.163 201.733 734.029 201.467 733.763 201.2C733.763 200.933 733.763 200.667 733.763 200.4V199.6C737.763 198 741.763 197.2 745.763 197.2C750.029 197.2 754.029 196.8 757.763 196C764.696 194.4 771.229 192 777.363 188.8C783.496 185.6 790.429 184 798.163 184C798.963 189.6 799.363 195.333 799.363 201.2C799.363 208.667 798.963 216.4 798.163 224.4C797.629 232.133 797.229 239.733 796.963 247.2ZM881.428 176C881.161 176.267 879.961 176.4 877.828 176.4C871.161 176.667 865.961 176.8 862.228 176.8C858.495 176.8 856.095 176.8 855.028 176.8C852.095 176.8 848.495 176.4 844.228 175.6C840.228 174.8 836.361 174.4 832.628 174.4C829.961 174.4 827.828 174.8 826.228 175.6C826.761 177.733 827.028 179.867 827.028 182V201.6C825.428 227.467 823.961 253.333 822.628 279.2C821.561 305.067 821.028 330.133 821.028 354.4V368.8C821.028 371.733 821.161 374.4 821.428 376.8C821.695 379.2 822.228 380.4 823.028 380.4C824.095 380.4 824.495 379.733 824.228 378.4C824.228 377.333 824.895 376.667 826.228 376.4C830.761 376.4 835.695 376.533 841.028 376.8C846.361 377.067 851.828 377.2 857.428 377.2H863.428C867.161 377.2 871.028 376.933 875.028 376.4C879.028 375.867 881.028 374.667 881.028 372.8C881.028 371.467 880.628 370.533 879.828 370C879.295 369.2 878.761 368.133 878.228 366.8V353.6C878.228 330.933 878.895 307.2 880.228 282.4C881.561 257.6 882.228 233.067 882.228 208.8C882.228 203.2 882.095 197.733 881.828 192.4C881.828 186.8 881.695 181.333 881.428 176ZM870.228 368C857.695 368 848.495 367.867 842.628 367.6C836.761 367.333 832.628 367.067 830.228 366.8C827.828 366.533 826.495 366.267 826.228 366C826.228 365.733 825.828 365.6 825.028 365.6C824.761 360 824.495 354.4 824.228 348.8C824.228 343.2 824.228 337.6 824.228 332C824.228 324.8 824.361 317.467 824.628 310C824.895 302.533 825.295 294.933 825.828 287.2C826.628 276 826.895 264.533 826.628 252.8C826.628 240.8 827.695 228.8 829.828 216.8C830.361 210.4 830.495 204.133 830.228 198C830.228 191.6 831.295 185.867 833.428 180.8C837.428 181.333 841.961 181.733 847.028 182C852.361 182.267 857.961 182.4 863.828 182.4H871.028C872.361 182.4 873.561 182.4 874.628 182.4C875.695 182.4 876.895 182.267 878.228 182C876.361 213.467 875.295 244.533 875.028 275.2C875.028 305.6 874.495 336.533 873.428 368H870.228ZM825.828 95.2C825.295 97.0667 824.895 98.8 824.628 100.4C824.628 102 824.628 103.6 824.628 105.2C824.628 118.8 825.428 129.467 827.028 137.2C828.628 144.667 829.695 148.4 830.228 148.4H831.028C831.828 148.4 832.628 148.8 833.428 149.6C833.428 148.533 835.295 147.733 839.028 147.2C842.761 146.4 847.028 145.867 851.828 145.6C856.895 145.067 861.828 144.8 866.628 144.8C871.428 144.8 874.895 144.8 877.028 144.8C878.361 144.8 879.028 145.2 879.028 146V148.4C879.028 149.733 879.428 150.4 880.228 150.4C881.028 149.067 881.295 147.733 881.028 146.4C880.761 145.067 881.295 144.133 882.628 143.6C881.828 136.933 881.161 130 880.628 122.8C880.095 115.333 879.828 108.533 879.828 102.4V96.8C879.828 94.4 879.961 92.9333 880.228 92.4C879.428 92.6666 877.828 92.8 875.428 92.8H870.628C862.095 92.8 853.961 92.4 846.228 91.6C838.761 90.8 830.895 90.2667 822.628 90C822.628 91.6 823.161 92.5333 824.228 92.8C825.295 92.8 825.828 93.6 825.828 95.2ZM831.828 98.8C832.361 99.0667 834.495 99.2 838.228 99.2C839.028 99.2 840.761 99.2 843.428 99.2C846.095 98.9333 848.761 98.8 851.428 98.8C854.361 98.5333 856.895 98.2666 859.028 98C861.428 97.4667 862.628 96.9333 862.628 96.4C862.628 95.8667 862.495 95.4667 862.228 95.2C862.228 94.9333 862.228 94.5333 862.228 94H863.828C865.961 94 868.095 94.2667 870.228 94.8C872.361 95.0667 873.828 95.4667 874.628 96C874.361 96.5333 874.228 98.5333 874.228 102C874.228 108.4 874.761 114.933 875.828 121.6C876.895 128 877.695 134.4 878.228 140.8C875.561 141.867 872.628 142.533 869.428 142.8C866.495 143.067 863.428 143.2 860.228 143.2C857.295 143.2 854.495 143.2 851.828 143.2C849.161 142.933 846.628 142.8 844.228 142.8C842.895 142.8 841.561 142.933 840.228 143.2C839.161 143.2 838.095 143.2 837.028 143.2C837.028 142.133 836.761 140.4 836.228 138C835.961 135.6 835.561 133.2 835.028 130.8C834.761 128.133 834.361 125.867 833.828 124C833.561 122.133 833.295 121.2 833.028 121.2V122C832.761 120.133 832.495 117.6 832.228 114.4C831.961 111.2 831.561 107.333 831.028 102.8L831.828 98.8ZM965.041 236.4C963.974 228.667 963.041 221.067 962.241 213.6C961.441 206.133 961.041 198.8 961.041 191.6C961.041 189.467 961.174 187.6 961.441 186C961.707 184.133 961.841 182.133 961.841 180C961.841 177.333 960.641 174.933 958.241 172.8C956.907 172.8 956.241 173.067 956.241 173.6C956.241 173.867 956.107 174.4 955.841 175.2C955.841 175.733 955.307 176.267 954.241 176.8C953.441 177.067 951.574 177.2 948.641 177.2C937.974 175.867 929.041 174.933 921.841 174.4C914.907 173.6 909.707 172.933 906.241 172.4C904.907 172.933 904.107 174 903.841 175.6C903.841 176.933 903.841 178.533 903.841 180.4C903.841 186.267 903.974 191.333 904.241 195.6C904.507 199.867 904.774 205.467 905.041 212.4C905.574 219.067 905.974 228 906.241 239.2C906.507 250.4 906.641 265.733 906.641 285.2C906.641 287.6 906.507 289.467 906.241 290.8C906.241 292.133 906.241 293.733 906.241 295.6C906.241 297.467 906.107 300.133 905.841 303.6C905.841 307.067 905.841 312.267 905.841 319.2C905.841 325.067 905.041 332.133 903.441 340.4C902.107 348.667 901.441 356.267 901.441 363.2C901.441 364.533 901.441 365.867 901.441 367.2C901.707 368.267 901.841 369.467 901.841 370.8C901.841 381.2 896.907 387.867 887.041 390.8C877.174 394 861.441 395.867 839.841 396.4L838.241 402.8C837.174 406.267 836.641 409.067 836.641 411.2C836.641 412.8 836.241 414.4 835.441 416C834.641 417.867 834.241 419.6 834.241 421.2C834.241 425.467 835.174 429.467 837.041 433.2C838.907 437.2 839.841 441.2 839.841 445.2V448.4C839.841 450.533 840.374 452 841.441 452.8C841.974 452.267 842.774 452 843.841 452L850.641 451.2C851.174 451.467 853.041 451.6 856.241 451.6C860.507 451.6 864.641 451.067 868.641 450C872.641 449.2 876.907 448.533 881.441 448C881.441 448 883.041 448.667 886.241 450C893.174 448.933 900.241 447.2 907.441 444.8C914.641 442.4 921.307 441.2 927.441 441.2C931.707 441.2 934.107 440.8 934.641 440L936.641 438C937.441 437.467 938.241 436.8 939.041 436C939.841 435.467 940.907 435.2 942.241 435.2C944.374 435.2 946.241 434.133 947.841 432C949.707 429.867 951.307 427.2 952.641 424C953.974 420.8 955.174 417.467 956.241 414C957.307 410.533 958.374 407.467 959.441 404.8C961.841 394.133 963.174 382.533 963.441 370C963.974 357.467 964.241 344.4 964.241 330.8C964.241 320.4 964.507 309.733 965.041 298.8C965.841 287.6 966.241 276.4 966.241 265.2C966.241 255.333 965.841 245.733 965.041 236.4ZM909.841 289.6C909.841 284.267 909.841 279.467 909.841 275.2C910.107 270.667 910.241 266.933 910.241 264C910.241 260.8 910.107 258.267 909.841 256.4C909.841 254.533 909.841 253.2 909.841 252.4V246C909.841 240.933 910.241 235.6 911.041 230C911.841 224.133 912.241 218.133 912.241 212C912.241 205.6 911.841 199.733 911.041 194.4C910.507 188.8 909.974 183.733 909.441 179.2C909.707 180 909.974 180.4 910.241 180.4C910.507 180.4 910.774 180.267 911.041 180C911.307 179.467 911.707 179.2 912.241 179.2C913.041 179.2 914.641 179.333 917.041 179.6C919.441 179.867 922.241 180.133 925.441 180.4C928.641 180.667 931.974 180.933 935.441 181.2C939.174 181.467 942.641 181.6 945.841 181.6C949.574 181.6 952.507 181.2 954.641 180.4C955.174 198 955.841 216.667 956.641 236.4C957.441 255.867 957.841 276 957.841 296.8C957.841 307.2 957.707 318.667 957.441 331.2C957.174 343.467 956.507 355.2 955.441 366.4C954.641 377.6 953.307 387.6 951.441 396.4C949.841 405.2 947.574 411.2 944.641 414.4C943.841 415.467 942.641 416.133 941.041 416.4C939.441 416.933 937.974 417.733 936.641 418.8C933.707 421.2 931.707 423.2 930.641 424.8C929.574 426.667 928.107 428.267 926.241 429.6C924.374 431.2 921.441 432.8 917.441 434.4C913.707 436 907.574 437.867 899.041 440C891.307 441.6 885.174 442.933 880.641 444C876.107 445.067 872.507 445.867 869.841 446.4C866.907 446.933 864.507 447.333 862.641 447.6C860.774 447.867 858.507 448 855.841 448C848.907 448 844.907 446 843.841 442C842.507 438.267 841.841 434 841.841 429.2C841.841 425.467 841.974 421.733 842.241 418C842.507 414.533 842.907 410.933 843.441 407.2C847.441 405.333 852.374 403.867 858.241 402.8C864.107 402 869.974 401.067 875.841 400C881.441 398.933 886.774 397.467 891.841 395.6C896.641 394 900.241 391.6 902.641 388.4C903.441 387.067 903.974 385.6 904.241 384C904.507 382.4 904.774 380.667 905.041 378.8C905.307 377.2 905.707 375.6 906.241 374C907.041 372.4 908.241 370.933 909.841 369.6C909.041 367.467 908.507 365.2 908.241 362.8C908.241 360.4 908.241 357.867 908.241 355.2C908.241 347.733 908.374 338.667 908.641 328C908.907 317.067 909.307 304.267 909.841 289.6ZM955.841 148.4C955.307 147.067 954.907 146.4 954.641 146.4C954.641 146.4 954.641 145.733 954.641 144.4C955.174 143.867 956.374 143.733 958.241 144C960.107 144.267 961.307 143.733 961.841 142.4C961.307 141.333 960.507 139.467 959.441 136.8C958.641 133.867 958.241 130.933 958.241 128C958.241 124.533 959.041 122 960.641 120.4C959.841 115.067 959.441 109.467 959.441 103.6C959.707 97.7333 958.907 92.8 957.041 88.8C953.307 88.8 949.307 89.0667 945.041 89.6C940.774 90.1333 936.641 90.8 932.641 91.6C928.641 92.1333 924.907 92.6667 921.441 93.2C918.241 93.7333 915.707 94 913.841 94C912.241 94 911.174 93.7333 910.641 93.2C910.107 92.6667 909.841 92.1333 909.841 91.6C909.841 90.8 909.707 90.1333 909.441 89.6C909.441 89.0667 909.041 88.8 908.241 88.8C907.441 88.8 906.774 89.7333 906.241 91.6C905.707 93.4667 905.307 95.6 905.041 98C905.041 100.4 904.907 102.933 904.641 105.6C904.641 108.267 904.641 110.4 904.641 112C904.641 114.133 904.641 117.867 904.641 123.2C904.641 128.267 904.774 134.933 905.041 143.2C905.041 146.4 904.907 148.4 904.641 149.2C905.707 149.2 906.641 149.333 907.441 149.6C908.507 149.6 909.574 149.6 910.641 149.6C916.507 149.6 921.974 149.2 927.041 148.4C932.374 147.6 937.707 147.2 943.041 147.2C947.041 147.2 951.307 147.6 955.841 148.4ZM909.841 98.4C913.041 97.0666 916.374 96.2666 919.841 96C923.307 95.7333 926.774 95.6 930.241 95.6C933.707 95.6 937.041 95.4667 940.241 95.2C943.707 94.6667 947.041 93.4667 950.241 91.6C950.774 92.1333 951.174 92.4 951.441 92.4C953.041 99.3333 953.841 107.333 953.841 116.4C953.841 125.2 954.641 133.333 956.241 140.8C954.107 141.333 952.107 141.733 950.241 142C948.641 142.267 945.974 142.4 942.241 142.4C938.241 142.4 933.574 142.4 928.241 142.4C923.174 142.133 919.574 142 917.441 142H911.041V138C911.041 131.867 910.774 126 910.241 120.4C909.974 114.8 909.841 108.933 909.841 102.8V98.4ZM1234.68 254.8C1234.68 243.6 1233.88 233.067 1232.28 223.2C1230.95 213.067 1229.21 202.933 1227.08 192.8C1226.81 192.267 1225.48 191.2 1223.08 189.6C1220.95 188 1217.88 186.4 1213.88 184.8C1210.15 183.2 1205.61 181.733 1200.28 180.4C1194.95 179.067 1189.08 178.4 1182.68 178.4C1175.75 178.4 1169.75 179.067 1164.68 180.4C1159.61 181.467 1155.08 182.933 1151.08 184.8C1147.08 186.4 1143.35 188.267 1139.88 190.4C1136.41 192.267 1132.95 194.133 1129.48 196C1119.88 186.4 1106.15 181.6 1088.28 181.6C1079.75 181.6 1072.15 182.8 1065.48 185.2C1058.81 187.6 1052.41 189.867 1046.28 192C1046.01 190.4 1045.88 188.667 1045.88 186.8C1046.15 184.933 1045.88 183.333 1045.08 182C1035.75 181.733 1026.68 181.6 1017.88 181.6C1009.08 181.6 1000.15 181.067 991.081 180C990.548 179.467 989.881 178.8 989.081 178C988.548 176.933 987.881 176.4 987.081 176.4C986.281 176.4 985.615 177.333 985.081 179.2C984.815 180.8 984.548 185.467 984.281 193.2C984.015 200.933 983.881 212.667 983.881 228.4C983.881 243.867 983.881 265.6 983.881 293.6C983.881 304.8 984.148 315.867 984.681 326.8C985.481 337.467 985.881 347.6 985.881 357.2V361.2C985.881 363.333 985.748 364.667 985.481 365.2C986.548 365.733 987.081 366.8 987.081 368.4C987.348 370 987.481 371.867 987.481 374C987.481 375.867 987.481 377.6 987.481 379.2C987.748 381.067 988.415 382.4 989.481 383.2C993.215 382.667 997.348 381.6 1001.88 380C1006.68 378.667 1011.88 378 1017.48 378C1020.15 378 1022.68 378 1025.08 378C1027.48 378.267 1029.75 378.4 1031.88 378.4C1033.75 378.4 1035.48 378.267 1037.08 378C1038.68 377.733 1040.15 377.067 1041.48 376C1040.68 372.533 1040.28 368.4 1040.28 363.6C1040.28 359.333 1040.41 354.933 1040.68 350.4C1041.21 345.6 1041.48 340.667 1041.48 335.6C1041.48 328.933 1041.21 322.267 1040.68 315.6C1040.15 308.933 1039.88 302.533 1039.88 296.4C1039.88 289.2 1040.01 282.667 1040.28 276.8C1040.81 270.667 1041.88 265.467 1043.48 261.2C1045.35 256.667 1048.01 253.2 1051.48 250.8C1055.21 248.133 1060.15 246.8 1066.28 246.8C1071.35 246.8 1075.48 248.4 1078.68 251.6C1081.88 263.067 1084.41 275.467 1086.28 288.8C1088.15 302.133 1089.08 315.6 1089.08 329.2C1089.08 337.2 1088.68 345.2 1087.88 353.2C1087.35 360.933 1086.28 368.267 1084.68 375.2C1087.61 375.733 1089.75 376.533 1091.08 377.6C1092.41 378.667 1094.55 379.2 1097.48 379.2H1102.28C1107.08 379.2 1112.01 378.933 1117.08 378.4C1122.41 378.133 1127.48 378 1132.28 378C1133.61 378 1134.81 378 1135.88 378C1136.95 378.267 1138.15 378.4 1139.48 378.4C1139.48 376 1139.48 373.733 1139.48 371.6C1139.75 369.2 1139.88 366.667 1139.88 364C1139.88 353.6 1139.61 343.067 1139.08 332.4C1138.55 321.467 1138.28 310.667 1138.28 300C1138.28 290.667 1138.68 281.733 1139.48 273.2C1140.28 264.667 1141.88 256.667 1144.28 249.2C1147.75 247.867 1150.81 247.2 1153.48 247.2C1158.28 247.2 1162.41 248.4 1165.88 250.8C1169.35 253.2 1172.15 256.4 1174.28 260.4C1176.41 264.133 1178.01 268.533 1179.08 273.6C1180.15 278.667 1180.68 283.867 1180.68 289.2C1180.68 293.733 1180.55 298.4 1180.28 303.2C1180.01 308 1179.88 313.067 1179.88 318.4C1179.88 322.4 1180.01 326.4 1180.28 330.4C1180.55 334.4 1180.68 338.533 1180.68 342.8C1180.68 350.267 1180.55 357.467 1180.28 364.4C1180.01 371.333 1179.75 377.467 1179.48 382.8C1182.15 382.267 1185.75 381.867 1190.28 381.6C1194.81 381.333 1199.48 381.067 1204.28 380.8C1209.35 380.533 1214.28 380.133 1219.08 379.6C1224.15 379.333 1228.55 378.8 1232.28 378C1232.28 376.667 1231.61 376 1230.28 376C1229.21 376 1228.68 375.467 1228.68 374.4C1228.68 372.267 1228.95 370 1229.48 367.6C1230.28 364.933 1230.68 362.267 1230.68 359.6C1230.68 355.867 1230.55 352.267 1230.28 348.8C1230.01 345.067 1229.88 341.333 1229.88 337.6C1229.88 326.133 1230.55 314.133 1231.88 301.6C1233.21 289.067 1234.15 276.8 1234.68 264.8V254.8ZM1224.68 374.8C1221.21 375.867 1216.15 376.4 1209.48 376.4C1201.48 376.4 1193.21 375.333 1184.68 373.2C1185.21 364.133 1185.88 354 1186.68 342.8C1187.75 331.333 1188.28 320 1188.28 308.8C1188.28 300.533 1187.75 292.667 1186.68 285.2C1185.88 277.467 1184.28 270.533 1181.88 264.4C1181.08 262.533 1179.88 260.267 1178.28 257.6C1176.95 254.667 1175.35 251.867 1173.48 249.2C1171.61 246.533 1169.48 244.267 1167.08 242.4C1164.68 240.533 1162.28 239.6 1159.88 239.6C1156.41 239.6 1152.15 240.667 1147.08 242.8C1142.28 244.933 1139.08 247.067 1137.48 249.2C1136.68 250.533 1136.15 252.267 1135.88 254.4C1135.88 256.533 1135.88 258.933 1135.88 261.6V285.2C1135.88 288.667 1136.01 291.867 1136.28 294.8C1136.55 297.733 1136.68 300.533 1136.68 303.2C1136.68 311.733 1136.28 319.733 1135.48 327.2C1134.95 334.667 1134.68 342 1134.68 349.2C1134.68 352.933 1134.95 356.533 1135.48 360C1136.28 363.467 1136.68 367.2 1136.68 371.2C1136.68 373.6 1136.55 374.933 1136.28 375.2C1130.95 373.867 1125.35 372.8 1119.48 372C1113.88 370.933 1108.41 370.4 1103.08 370.4H1099.48C1097.61 370.4 1096.41 370.533 1095.88 370.8C1096.41 364.4 1096.81 357.467 1097.08 350C1097.61 342.533 1097.88 334.667 1097.88 326.4V318.4C1097.88 312.8 1097.75 306.933 1097.48 300.8C1097.48 294.4 1097.08 288.267 1096.28 282.4C1095.75 276.267 1094.81 270.667 1093.48 265.6C1092.15 260.533 1090.28 256.4 1087.88 253.2C1086.81 251.867 1085.35 250.667 1083.48 249.6C1081.61 248.533 1080.01 247.2 1078.68 245.6C1076.55 243.467 1074.28 241.333 1071.88 239.2C1069.75 237.067 1066.55 236 1062.28 236C1056.68 236 1052.01 237.6 1048.28 240.8C1044.81 243.733 1041.88 247.6 1039.48 252.4C1037.35 257.2 1035.88 262.4 1035.08 268C1034.28 273.6 1033.88 278.933 1033.88 284V304.4C1033.88 308.4 1033.88 312.4 1033.88 316.4C1034.15 320.4 1034.28 324.267 1034.28 328C1034.28 330.667 1034.01 333.2 1033.48 335.6C1032.95 337.733 1032.68 339.867 1032.68 342C1032.68 344.4 1032.95 346.933 1033.48 349.6C1034.01 352.267 1034.28 354.667 1034.28 356.8C1034.55 359.733 1034.68 362.533 1034.68 365.2C1034.68 367.867 1034.95 370.667 1035.48 373.6C1028.55 374.133 1021.48 374.533 1014.28 374.8C1007.35 374.8 1000.41 375.6 993.481 377.2C992.415 373.467 991.748 369.867 991.481 366.4C991.215 362.933 991.081 359.333 991.081 355.6C991.081 348.667 991.348 341.867 991.881 335.2C992.681 328.533 993.081 321.733 993.081 314.8C993.081 302 992.948 289.6 992.681 277.6C992.415 265.333 992.281 252.8 992.281 240C992.281 231.2 992.415 222.4 992.681 213.6C992.948 204.533 993.348 195.333 993.881 186C993.615 185.733 993.481 185.333 993.481 184.8L994.281 184C1001.21 185.067 1008.55 185.6 1016.28 185.6C1024.01 185.333 1031.61 185.467 1039.08 186C1040.15 190 1040.68 194.133 1040.68 198.4C1040.68 200.267 1040.01 203.6 1038.68 208.4C1041.08 208.4 1042.68 207.733 1043.48 206.4C1044.55 204.8 1045.88 203.6 1047.48 202.8C1051.75 200.133 1056.68 197.733 1062.28 195.6C1068.15 193.2 1074.55 192 1081.48 192C1085.21 192 1089.61 192.533 1094.68 193.6C1099.75 194.4 1104.68 195.867 1109.48 198C1111.61 199.067 1114.55 200.667 1118.28 202.8C1122.01 204.933 1124.95 206 1127.08 206C1128.95 206 1130.68 205.467 1132.28 204.4C1134.15 203.333 1135.88 202 1137.48 200.4L1142.28 195.6C1144.15 193.733 1147.21 192.133 1151.48 190.8C1156.01 189.2 1160.81 187.867 1165.88 186.8C1170.95 185.733 1175.88 184.933 1180.68 184.4C1185.48 183.867 1189.21 183.6 1191.88 183.6C1198.01 183.6 1203.35 185.2 1207.88 188.4C1212.41 191.333 1216.68 194.533 1220.68 198C1222.55 217.2 1224.01 236.8 1225.08 256.8C1226.41 276.8 1227.08 296.8 1227.08 316.8C1227.08 336.8 1226.28 356.133 1224.68 374.8ZM1419.32 346C1418.79 339.333 1418.39 332.533 1418.12 325.6C1417.85 318.4 1417.72 311.2 1417.72 304V286C1417.72 283.6 1417.72 280.667 1417.72 277.2C1417.99 273.467 1418.12 269.2 1418.12 264.4V256.4C1418.39 248.4 1418.65 242 1418.92 237.2C1419.45 232.4 1419.85 227.733 1420.12 223.2C1420.39 218.667 1420.52 213.6 1420.52 208C1420.79 202.133 1420.92 194.4 1420.92 184.8C1420.92 183.733 1420.79 182.4 1420.52 180.8C1420.25 178.933 1419.45 178 1418.12 178C1417.59 178 1417.19 178.4 1416.92 179.2C1416.92 179.733 1416.65 180 1416.12 180C1407.59 180 1398.52 179.733 1388.92 179.2C1379.32 178.667 1371.19 177.733 1364.52 176.4C1363.99 178.533 1363.72 180.267 1363.72 181.6V186C1363.72 188.133 1363.59 189.333 1363.32 189.6C1359.59 185.067 1354.25 182.267 1347.32 181.2C1340.65 179.867 1333.19 179.067 1324.92 178.8C1324.12 178.8 1323.32 179.067 1322.52 179.6C1321.99 179.867 1321.32 180 1320.52 180C1319.19 180 1317.19 180.4 1314.52 181.2C1312.12 181.733 1308.79 183.2 1304.52 185.6C1300.25 188 1295.05 191.6 1288.92 196.4C1283.05 200.933 1275.99 207.2 1267.72 215.2C1266.12 219.733 1264.79 223.333 1263.72 226C1262.92 228.667 1262.39 230.267 1262.12 230.8C1261.05 234.8 1260.12 239.2 1259.32 244C1258.52 248.267 1257.85 253.467 1257.32 259.6C1256.79 265.467 1256.52 272.267 1256.52 280C1256.52 292.8 1257.59 305.2 1259.72 317.2C1262.12 328.933 1265.85 339.333 1270.92 348.4C1275.99 357.467 1282.65 364.8 1290.92 370.4C1299.19 375.733 1309.32 378.4 1321.32 378.4C1326.12 378.4 1330.12 377.867 1333.32 376.8C1336.79 375.733 1339.99 374.4 1342.92 372.8C1345.85 370.933 1348.65 369.067 1351.32 367.2C1354.25 365.333 1357.59 363.6 1361.32 362C1361.05 364.133 1360.65 366 1360.12 367.6C1359.85 369.2 1359.72 371.067 1359.72 373.2C1359.72 374.267 1359.99 375.2 1360.52 376C1361.32 376.533 1361.99 377.2 1362.52 378C1367.05 376.933 1374.25 376.4 1384.12 376.4C1389.45 376.4 1394.79 376.533 1400.12 376.8C1405.72 377.067 1411.19 377.467 1416.52 378C1419.45 376.667 1420.92 374.533 1420.92 371.6C1420.92 363.867 1420.65 357.867 1420.12 353.6C1419.59 349.067 1419.32 346.533 1419.32 346V345.6V346ZM1416.12 226C1416.12 232.133 1416.12 237.867 1416.12 243.2C1416.39 248.267 1416.52 252.933 1416.52 257.2C1416.52 263.067 1416.39 268.133 1416.12 272.4C1416.12 276.667 1416.12 280.667 1416.12 284.4C1416.12 287.867 1415.99 291.333 1415.72 294.8C1415.72 298.267 1415.72 302.267 1415.72 306.8C1415.72 317.467 1415.72 328.133 1415.72 338.8C1415.99 349.2 1416.25 360 1416.52 371.2C1412.52 370.4 1408.52 370 1404.52 370C1398.92 370 1393.32 370.4 1387.72 371.2C1382.39 372 1376.65 372.4 1370.52 372.4C1368.65 372.4 1367.05 372.133 1365.72 371.6C1364.65 371.067 1364.12 369.733 1364.12 367.6C1364.12 365.467 1364.25 363.333 1364.52 361.2C1365.05 358.8 1365.32 356.533 1365.32 354.4C1365.32 352 1365.19 350.667 1364.92 350.4C1361.72 352.267 1358.65 354.4 1355.72 356.8C1353.05 358.933 1350.25 361.067 1347.32 363.2C1346.79 363.2 1346.52 362.933 1346.52 362.4C1346.79 361.6 1346.65 361.2 1346.12 361.2C1345.59 362 1344.12 362.8 1341.72 363.6C1339.59 364.4 1336.92 365.2 1333.72 366C1330.79 366.533 1327.59 367.067 1324.12 367.6C1320.92 368.133 1317.99 368.4 1315.32 368.4C1312.39 368.4 1309.99 368 1308.12 367.2C1306.25 366.133 1304.65 365.6 1303.32 365.6C1293.99 362.933 1286.65 358.267 1281.32 351.6C1276.25 344.667 1272.39 336.8 1269.72 328C1267.05 318.933 1265.32 309.333 1264.52 299.2C1263.99 289.067 1263.72 279.333 1263.72 270C1263.72 267.333 1263.72 263.867 1263.72 259.6C1263.99 255.333 1264.39 250.933 1264.92 246.4C1265.45 241.6 1266.12 237.067 1266.92 232.8C1267.72 228.267 1268.92 224.533 1270.52 221.6C1273.72 215.2 1278.92 209.467 1286.12 204.4C1293.32 199.067 1300.12 193.733 1306.52 188.4C1307.59 187.6 1309.32 186.933 1311.72 186.4C1314.39 185.6 1317.32 185.067 1320.52 184.8C1323.72 184.267 1326.79 183.867 1329.72 183.6C1332.92 183.333 1335.59 183.2 1337.72 183.2C1339.85 183.2 1342.39 183.6 1345.32 184.4C1348.25 184.933 1349.72 185.467 1349.72 186L1349.32 187.2C1351.99 187.2 1354.65 188.667 1357.32 191.6C1360.25 194.533 1363.19 196.8 1366.12 198.4C1367.72 196.8 1368.79 194.8 1369.32 192.4C1369.85 190 1370.52 187.733 1371.32 185.6C1378.79 188.533 1385.59 190 1391.72 190C1397.32 190 1401.85 188.667 1405.32 186C1406.65 186.533 1407.99 187.067 1409.32 187.6C1410.92 188.133 1412.39 188.4 1413.72 188.4C1414.79 188.4 1415.05 187.867 1414.52 186.8C1414.25 185.467 1414.65 184.8 1415.72 184.8C1417.05 185.333 1417.72 187.6 1417.72 191.6C1417.72 197.2 1417.45 202.933 1416.92 208.8C1416.39 214.4 1416.12 220.133 1416.12 226ZM1355.72 226.4C1347.99 226.667 1341.19 226.933 1335.32 227.2C1329.72 227.467 1324.39 228.667 1319.32 230.8C1316.12 232.133 1313.19 234.667 1310.52 238.4C1308.12 242.133 1305.99 246.4 1304.12 251.2C1302.52 256 1301.19 260.933 1300.12 266C1299.32 271.067 1298.92 275.6 1298.92 279.6C1298.92 286.533 1300.25 292.8 1302.92 298.4C1305.59 304 1308.79 308.8 1312.52 312.8C1316.25 316.533 1320.12 319.467 1324.12 321.6C1328.12 323.733 1331.59 324.8 1334.52 324.8C1338.79 324.8 1342.79 323.733 1346.52 321.6C1350.25 319.467 1353.99 317.467 1357.72 315.6V318.4H1357.32C1357.32 317.867 1357.85 315.733 1358.92 312C1359.99 308 1361.19 303.067 1362.52 297.2C1363.85 291.067 1365.05 284.267 1366.12 276.8C1367.19 269.333 1367.72 261.6 1367.72 253.6C1367.72 247.2 1366.79 241.6 1364.92 236.8C1363.32 232 1360.25 228.533 1355.72 226.4ZM1360.92 271.6C1359.85 281.733 1357.59 291.067 1354.12 299.6C1350.65 308.133 1346.12 315.067 1340.52 320.4C1333.59 320.133 1327.99 318.667 1323.72 316C1319.72 313.333 1316.52 309.733 1314.12 305.2C1311.72 300.4 1310.12 294.8 1309.32 288.4C1308.52 282 1308.12 274.933 1308.12 267.2C1308.12 257.333 1310.65 249.467 1315.72 243.6C1320.79 237.467 1328.12 234.4 1337.72 234.4C1346.25 234.4 1352.25 236.933 1355.72 242C1359.45 247.067 1361.32 253.867 1361.32 262.4V266.8C1361.32 269.2 1361.19 270.8 1360.92 271.6Z" fill="#604D42"/>
<path d="M62.117 275.83C62.9717 246 50.6263 167.34 99.3432 110.625C142.837 60.085 225.456 52.39 290.032 86.4C386.231 137.035 369.708 250.94 318.522 323.9C290.331 363.997 252.308 396.171 208.106 417.332C163.903 438.494 115.005 447.932 66.1055 444.74C11.5009 440.655 3.04903 394.96 32.2032 370.925C61.3573 346.89 61.3573 312.5 62.117 275.83Z" fill="#F9B630"/>
<path d="M75.0865 438.598C68.3123 438.598 61.5382 438.344 54.764 437.838C27.3192 435.843 8.04141 423.493 1.86871 404.113C-0.560425 395.329 -0.302633 386.018 2.60882 377.382C5.52028 368.746 10.9518 361.181 18.2026 355.663C45.0776 333.433 45.6474 303.318 46.692 268.358V264.178V247.458C44.7927 211.643 42.7035 145.238 84.7729 95.9326C117.251 57.9326 172.9 41.5926 229.974 52.6126C230.593 52.7264 231.184 52.9624 231.712 53.3069C232.239 53.6514 232.693 54.0974 233.047 54.6191C233.4 55.1408 233.647 55.7276 233.771 56.3454C233.896 56.9632 233.896 57.5997 233.772 58.2176C233.52 59.4576 232.792 60.5493 231.745 61.2594C230.698 61.9695 229.414 62.2417 228.169 62.0176C174.419 51.5676 122.189 66.9576 91.9902 102.108C52.2 149.038 54.1942 210.218 55.5237 246.983V268.453C54.764 304.173 54.0993 337.993 23.9005 362.883C18.1225 367.145 13.7632 373.052 11.3915 379.83C9.0198 386.609 8.74587 393.946 10.6055 400.883C15.5436 416.463 31.7826 426.343 55.1439 428.053C83.3902 430.121 111.786 427.717 139.283 420.928C139.906 420.778 140.553 420.753 141.186 420.853C141.82 420.953 142.427 421.178 142.974 421.513C143.521 421.848 143.996 422.288 144.373 422.807C144.75 423.326 145.021 423.914 145.17 424.538C145.32 425.161 145.345 425.809 145.245 426.442C145.145 427.076 144.921 427.683 144.585 428.23C144.25 428.777 143.811 429.253 143.292 429.63C142.773 430.007 142.185 430.278 141.562 430.428C119.809 435.799 97.4916 438.542 75.0865 438.598ZM154.952 426.818C153.692 426.994 152.415 426.663 151.4 425.897C150.384 425.131 149.715 423.992 149.539 422.733C149.362 421.473 149.694 420.195 150.459 419.179C151.225 418.164 152.363 417.494 153.622 417.318C160.46 415.228 167.297 412.948 174.04 410.288C175.186 409.939 176.422 410.037 177.499 410.562C178.577 411.087 179.416 412 179.849 413.118C180.281 414.236 180.275 415.476 179.832 416.59C179.389 417.703 178.541 418.608 177.458 419.123C170.526 421.783 163.404 424.253 156.376 426.343L154.952 426.818ZM195.692 411.048C194.432 411.312 193.119 411.065 192.042 410.362C190.965 409.658 190.211 408.555 189.946 407.295C189.682 406.035 189.928 404.722 190.632 403.644C191.335 402.566 192.438 401.812 193.697 401.548L197.591 399.648C198.698 399.187 199.938 399.161 201.062 399.577C202.187 399.993 203.113 400.819 203.654 401.889C204.195 402.96 204.311 404.195 203.979 405.348C203.647 406.5 202.892 407.484 201.864 408.103L197.781 410.098C197.173 410.58 196.455 410.907 195.692 411.048ZM221.902 396.798C220.857 396.808 219.839 396.473 219.004 395.846C218.169 395.218 217.564 394.333 217.282 393.327C217.001 392.321 217.06 391.25 217.448 390.28C217.837 389.31 218.534 388.496 219.433 387.963C252.668 367.727 281.376 340.852 303.761 309.018C334.055 266.078 348.585 214.018 342.602 170.603C342.438 169.343 342.781 168.07 343.556 167.063C344.331 166.056 345.474 165.399 346.733 165.235C347.992 165.071 349.265 165.415 350.271 166.19C351.277 166.965 351.935 168.108 352.098 169.368C358.366 215.348 343.267 269.593 311.643 314.528C288.468 347.415 258.758 375.164 224.371 396.038C223.634 396.514 222.779 396.777 221.902 396.798Z" fill="#604D42"/>
<path d="M266.196 77.66C266.196 77.66 288.988 55.335 329.822 67.305C370.657 79.275 407.978 145.395 430.865 165.63C407.12 164.89 383.755 159.466 362.11 149.67C310.829 126.205 266.196 77.66 266.196 77.66V77.66Z" fill="#73D36E"/>
<path d="M424.868 157.806C400.451 156.808 376.485 150.895 354.405 140.421C318.173 121.333 285.527 96.1003 257.921 65.8457C257.051 64.9577 256.563 63.764 256.563 62.5207C256.563 61.2773 257.051 60.0836 257.921 59.1957C259.155 58.0557 284.131 35.5407 326.675 48.5557C355.734 57.5807 381.944 91.7807 402.647 119.236C410.252 129.904 418.665 139.972 427.812 149.351C428.524 149.998 429.022 150.845 429.242 151.782C429.461 152.718 429.391 153.699 429.041 154.595C428.691 155.491 428.078 156.259 427.282 156.798C426.486 157.338 425.545 157.623 424.583 157.616L424.868 157.806ZM268.462 62.8057C294.445 90.4564 324.835 113.602 358.393 131.301C375.599 139.325 393.963 144.583 412.808 146.881C407.585 141.181 401.792 134.056 395.429 125.221C375.202 98.8107 350.036 65.9407 323.826 58.0557C314.799 54.7047 305.133 53.4343 295.547 54.339C285.961 55.2436 276.703 58.3001 268.462 63.2807V62.8057Z" fill="#604D42"/>
<path d="M92.9805 167.15C87.8954 180.02 84.8824 193.616 84.0539 207.43C82.4395 230.135 84.5287 244.955 86.523 243.91C88.5172 242.865 89.4669 224.91 93.4554 206.48C95.9793 193.825 99.3421 181.353 103.522 169.145C109.314 153.945 97.7288 157.745 92.9805 167.15ZM110.929 136.37C109.09 136.069 107.203 136.392 105.568 137.287C103.934 138.182 102.645 139.598 101.907 141.31C101.17 142.87 101.023 144.644 101.495 146.304C101.966 147.964 103.024 149.396 104.471 150.335C107.89 151.95 110.739 149.385 112.543 145.49C114.348 141.595 114.443 137.795 110.929 136.37Z" fill="white"/>
<path d="M261.612 105.422C263.156 106.093 264.784 106.531 266.403 106.71C268.022 106.888 269.6 106.804 271.047 106.462C272.494 106.12 273.782 105.526 274.837 104.716C275.892 103.905 276.693 102.893 277.196 101.737C277.698 100.582 277.891 99.305 277.764 97.9802C277.637 96.6555 277.193 95.3086 276.456 94.0166C275.719 92.7245 274.705 91.5125 273.47 90.4498C272.236 89.3872 270.805 88.4946 269.261 87.8232C267.717 87.1513 266.089 86.7137 264.47 86.5352C262.852 86.3567 261.274 86.441 259.826 86.7831C258.379 87.1252 257.092 87.7186 256.036 88.5292C254.981 89.3398 254.18 90.3518 253.678 91.5075C253.175 92.6631 252.982 93.9398 253.109 95.2645C253.236 96.5893 253.68 97.9361 254.417 99.2282C255.154 100.52 256.169 101.732 257.403 102.795C258.638 103.858 260.068 104.75 261.612 105.422V105.422Z" fill="#604D42"/>
</svg>
