<svg width="431" height="402" viewBox="0 0 431 402" fill="none" xmlns="http://www.w3.org/2000/svg">
<path d="M62.117 231.83C62.9717 202 50.6263 123.34 99.3432 66.625C142.837 16.085 225.456 8.39 290.032 42.4C386.231 93.035 369.708 206.94 318.522 279.9C290.331 319.997 252.308 352.171 208.106 373.332C163.903 394.494 115.005 403.932 66.1055 400.74C11.5009 396.655 3.04903 350.96 32.2032 326.925C61.3573 302.89 61.3573 268.5 62.117 231.83Z" fill="#F9B630"/>
<path d="M75.0865 394.598C68.3123 394.598 61.5382 394.344 54.764 393.838C27.3192 391.843 8.04141 379.493 1.86871 360.113C-0.560425 351.329 -0.302633 342.018 2.60882 333.382C5.52028 324.746 10.9518 317.181 18.2026 311.663C45.0776 289.433 45.6474 259.318 46.692 224.358V220.178V203.458C44.7927 167.643 42.7035 101.238 84.7729 51.9326C117.251 13.9326 172.9 -2.40736 229.974 8.61264C230.593 8.72641 231.184 8.96241 231.712 9.30689C232.239 9.65137 232.693 10.0974 233.047 10.6191C233.4 11.1408 233.647 11.7276 233.771 12.3454C233.896 12.9632 233.896 13.5997 233.772 14.2176C233.52 15.4576 232.792 16.5493 231.745 17.2594C230.698 17.9695 229.414 18.2417 228.169 18.0176C174.419 7.56764 122.189 22.9576 91.9902 58.1076C52.2 105.038 54.1942 166.218 55.5237 202.983V224.453C54.764 260.173 54.0993 293.993 23.9005 318.883C18.1225 323.145 13.7632 329.052 11.3915 335.83C9.0198 342.609 8.74587 349.946 10.6055 356.883C15.5436 372.463 31.7826 382.343 55.1439 384.053C83.3902 386.121 111.786 383.717 139.283 376.928C139.906 376.778 140.553 376.753 141.186 376.853C141.82 376.953 142.427 377.178 142.974 377.513C143.521 377.848 143.996 378.288 144.373 378.807C144.75 379.326 145.021 379.914 145.17 380.538C145.32 381.161 145.345 381.809 145.245 382.442C145.145 383.076 144.921 383.683 144.585 384.23C144.25 384.777 143.811 385.253 143.292 385.63C142.773 386.007 142.185 386.278 141.562 386.428C119.809 391.799 97.4916 394.542 75.0865 394.598ZM154.952 382.818C153.692 382.994 152.415 382.663 151.4 381.897C150.384 381.131 149.715 379.992 149.539 378.733C149.362 377.473 149.694 376.195 150.459 375.179C151.225 374.164 152.363 373.494 153.622 373.318C160.46 371.228 167.297 368.948 174.04 366.288C175.186 365.939 176.422 366.037 177.499 366.562C178.577 367.087 179.416 368 179.849 369.118C180.281 370.236 180.275 371.476 179.832 372.59C179.389 373.703 178.541 374.608 177.458 375.123C170.526 377.783 163.404 380.253 156.376 382.343L154.952 382.818ZM195.692 367.048C194.432 367.312 193.119 367.065 192.042 366.362C190.965 365.658 190.211 364.555 189.946 363.295C189.682 362.035 189.928 360.722 190.632 359.644C191.335 358.566 192.438 357.812 193.697 357.548L197.591 355.648C198.698 355.187 199.938 355.161 201.062 355.577C202.187 355.993 203.113 356.819 203.654 357.889C204.195 358.96 204.311 360.195 203.979 361.348C203.647 362.5 202.892 363.484 201.864 364.103L197.781 366.098C197.173 366.58 196.455 366.907 195.692 367.048ZM221.902 352.798C220.857 352.808 219.839 352.473 219.004 351.846C218.169 351.218 217.564 350.333 217.282 349.327C217.001 348.321 217.06 347.25 217.448 346.28C217.837 345.31 218.534 344.496 219.433 343.963C252.668 323.727 281.376 296.852 303.761 265.018C334.055 222.078 348.585 170.018 342.602 126.603C342.438 125.343 342.781 124.07 343.556 123.063C344.331 122.056 345.474 121.399 346.733 121.235C347.992 121.071 349.265 121.415 350.271 122.19C351.277 122.965 351.935 124.108 352.098 125.368C358.366 171.348 343.267 225.593 311.643 270.528C288.468 303.415 258.758 331.164 224.371 352.038C223.634 352.514 222.779 352.777 221.902 352.798Z" fill="#604D42"/>
<path d="M266.196 33.66C266.196 33.66 288.988 11.335 329.822 23.305C370.657 35.275 407.978 101.395 430.865 121.63C407.12 120.89 383.755 115.466 362.11 105.67C310.829 82.205 266.196 33.66 266.196 33.66V33.66Z" fill="#73D36E"/>
<path d="M424.868 113.806C400.451 112.808 376.485 106.895 354.405 96.4207C318.173 77.333 285.527 52.1003 257.921 21.8457C257.051 20.9577 256.563 19.764 256.563 18.5207C256.563 17.2773 257.051 16.0836 257.921 15.1957C259.155 14.0557 284.131 -8.45934 326.675 4.55566C355.734 13.5807 381.944 47.7807 402.647 75.2357C410.252 85.9039 418.665 95.9718 427.812 105.351C428.524 105.998 429.022 106.845 429.242 107.782C429.461 108.718 429.391 109.699 429.041 110.595C428.691 111.491 428.078 112.259 427.282 112.798C426.486 113.338 425.545 113.623 424.583 113.616L424.868 113.806ZM268.462 18.8057C294.445 46.4564 324.835 69.6025 358.393 87.3007C375.599 95.3253 393.963 100.583 412.808 102.881C407.585 97.1806 401.792 90.0557 395.429 81.2207C375.202 54.8107 350.036 21.9407 323.826 14.0557C314.799 10.7047 305.133 9.43431 295.547 10.339C285.961 11.2436 276.703 14.3001 268.462 19.2807V18.8057Z" fill="#604D42"/>
<path d="M92.9805 123.15C87.8954 136.02 84.8824 149.616 84.0539 163.43C82.4395 186.135 84.5287 200.955 86.523 199.91C88.5172 198.865 89.4669 180.91 93.4554 162.48C95.9793 149.825 99.3421 137.353 103.522 125.145C109.314 109.945 97.7288 113.745 92.9805 123.15ZM110.929 92.37C109.09 92.0693 107.203 92.3921 105.568 93.2872C103.934 94.1823 102.645 95.5982 101.907 97.31C101.17 98.8698 101.023 100.644 101.495 102.304C101.966 103.964 103.024 105.396 104.471 106.335C107.89 107.95 110.739 105.385 112.543 101.49C114.348 97.595 114.443 93.795 110.929 92.37Z" fill="white"/>
<path d="M261.612 61.4216C263.156 62.0934 264.784 62.5311 266.403 62.7096C268.022 62.888 269.6 62.8038 271.047 62.4617C272.494 62.1195 273.782 61.5262 274.837 60.7156C275.892 59.905 276.693 58.8929 277.196 57.7373C277.698 56.5816 277.891 55.305 277.764 53.9802C277.637 52.6555 277.193 51.3086 276.456 50.0166C275.719 48.7245 274.705 47.5125 273.47 46.4498C272.236 45.3872 270.805 44.4946 269.261 43.8232C267.717 43.1513 266.089 42.7137 264.47 42.5352C262.852 42.3567 261.274 42.441 259.826 42.7831C258.379 43.1252 257.092 43.7186 256.036 44.5292C254.981 45.3398 254.18 46.3518 253.678 47.5075C253.175 48.6631 252.982 49.9398 253.109 51.2645C253.236 52.5893 253.68 53.9361 254.417 55.2282C255.154 56.5203 256.169 57.7323 257.403 58.7949C258.638 59.8576 260.068 60.7501 261.612 61.4216V61.4216Z" fill="#604D42"/>
</svg>
