<svg width="471" height="458" viewBox="0 0 471 458" fill="none" xmlns="http://www.w3.org/2000/svg">
<path d="M91.7104 80C190.21 -18.5 330.21 -13.5595 382.21 29.5C524.71 147.5 475.71 343.5 373.71 413C246.71 499.534 96.2104 448 31.7104 353.5C-19.8215 278 -10.7896 182.5 91.7104 80Z" fill="#FF8B02"/>
<path d="M325.109 345.792C375.206 308.381 409.617 259.072 424.468 209.22C439.318 159.371 434.723 108.29 405.526 68.7925C376.321 29.2847 328.954 10.0984 277.138 10.0004C225.329 9.90235 168.409 28.7966 118.312 66.2075C68.2146 103.619 33.8034 152.928 18.9528 202.78C4.10302 252.629 8.69764 303.71 37.8949 343.208C67.0999 382.715 114.467 401.902 166.283 402C218.092 402.098 275.012 383.203 325.109 345.792Z" fill="#FEF6E1" stroke="#FF9B01" stroke-width="20"/>
<path d="M322.666 340.24C371.504 303.953 405.068 256.115 419.557 207.724C434.046 159.331 429.57 109.705 401.056 71.3264C372.541 32.9479 326.319 14.3388 275.804 14.2437C225.29 14.1487 169.8 32.4761 120.962 68.7624C72.1232 105.049 38.5593 152.887 24.0704 201.278C9.58114 249.671 14.0569 299.297 42.5717 337.676C71.0864 376.054 117.309 394.663 167.824 394.758C218.337 394.853 273.827 376.526 322.666 340.24Z" fill="#FEF6E1" stroke="#FF9B01" stroke-width="20"/>
<path d="M199.239 222.918C203.071 219.871 208.545 223.576 207.142 228.265L169.747 353.206C169.392 354.392 168.817 355.538 167.994 356.462C149.317 377.453 112.415 354.728 85.7402 340.735C77.7528 336.545 75.1746 321.587 82.2339 315.973L199.239 222.918Z" fill="#FEB60A"/>
<path d="M194.519 217.929C198.439 215.016 196.287 208.788 191.405 208.917L59.4305 212.402C57.0308 212.465 54.6822 213.344 53.1408 215.184C36.0687 235.569 43.9856 283.103 59.7613 307.044C62.5411 311.262 68.2578 311.736 72.3131 308.723L194.519 217.929Z" fill="#FEB60A"/>
<path d="M208.759 191.676C211.457 194.918 209.176 199.839 204.958 199.874L70.2104 201C41.0142 201 95.6393 99.6566 133.153 103.905C135.168 104.133 136.905 105.335 138.202 106.893L208.759 191.676Z" fill="#FEB60A"/>
<path d="M222.743 183.576C221.713 187.611 216.491 188.693 213.943 185.4L146.71 98.5C132.407 73.5851 222.415 39.3036 251.331 45.9436C255.182 46.8279 256.581 50.967 255.604 54.7954L222.743 183.576Z" fill="#FEB60A"/>
<path d="M238.086 185.247C234.254 188.267 228.808 184.573 230.198 179.896L266.71 57C275.834 25.3089 360.581 59.5584 360.647 85.7953C360.652 87.9044 359.318 89.703 357.662 91.0085L238.086 185.247Z" fill="#FEB60A"/>
<path d="M243.138 190.644C239.255 193.567 241.403 199.75 246.262 199.637L379.069 196.538C380.156 196.513 381.248 196.351 382.189 195.807C402.202 184.251 398.969 93.9472 364.083 100.559C362.86 100.791 361.7 101.384 360.706 102.133L243.138 190.644Z" fill="#FEB60A"/>
<path d="M237.905 217.97C235.366 214.703 237.667 209.942 241.804 209.902L370.542 208.656C377.973 208.585 382.904 216.358 379.611 223.019C362.073 258.497 338.627 301.37 311.578 306.075C308.537 306.604 305.602 305.074 303.708 302.637L237.905 217.97Z" fill="#FEB60A"/>
<path d="M219.497 224.26C220.607 220.268 225.813 219.28 228.308 222.59L294.349 310.213C296.951 313.665 297.093 318.447 294.174 321.636C273.823 343.864 229.609 359.644 193.857 361.823C187.41 362.216 182.871 356.026 184.601 349.803L219.497 224.26Z" fill="#FEB60A"/>
</svg>
